<svg height="512" viewBox="0 0 512 512" width="512" xmlns="http://www.w3.org/2000/svg"><g id="BULINE"><circle cx="256" cy="256" fill="#854639" r="256"/></g><g id="Icons"><path d="m461.34 408.9a256 256 0 0 1 -410.68 0z" fill="#db3a46"/><path d="m390.11 6h10.12a4.59 4.59 0 0 1 4.59 4.59v93.51a0 0 0 0 1 0 0h-19.3a0 0 0 0 1 0 0v-93.51a4.59 4.59 0 0 1 4.59-4.59z" fill="#c6668f"/><path d="m399.91 6a4.6 4.6 0 0 0 -4.59 4.59v93.52h-9.65v-93.52a4.59 4.59 0 0 1 4.59-4.59z" fill="#a95980"/><path d="m467.64 149.11-1.08 18.74-1.62 28.08-11.46 198.49a15.36 15.36 0 0 1 -15.34 14.47h-83a15.36 15.36 0 0 1 -15.34-14.47l-2.73-47.28-1.85-32.08-9.58-165.95z" fill="#7bb9ec"/><path d="m331.39 124.11h130.5a5.75 5.75 0 0 1 5.75 5.75v19.25a0 0 0 0 1 0 0h-142a0 0 0 0 1 0 0v-19.25a5.75 5.75 0 0 1 5.75-5.75z" fill="#ccc"/><path d="m450 103.11h-106.75a7.66 7.66 0 0 0 -7.24 6.36l-3.12 14.64h127.5l-3.13-14.64a7.65 7.65 0 0 0 -7.26-6.36z" fill="#fff"/><path d="m466.56 167.85-1.62 28.08c-36.08 11.47-56.88 50.44-64.7 68.22a107.69 107.69 0 0 0 -4.72 13.41c-8.25 28.49-34.43 52.62-58.45 69.58l-1.85-32.08a81.61 81.61 0 0 0 33.1-48.68 134.09 134.09 0 0 1 11.68-32c24.12-45.81 62.47-61.31 86.56-66.53z" fill="#dc7da7"/><path d="m388.14 408.89h-33a15.36 15.36 0 0 1 -15.34-14.47l-2.73-47.28-1.85-32.08-9.58-165.95h33l7.25 125.58 2.33 40.37.32 5.54 1.53 26.54 2.73 47.28a15.36 15.36 0 0 0 15.34 14.47z" fill="#6fa4c8"/><path d="m368.54 320.6a222.39 222.39 0 0 1 -31.47 26.54l-1.85-32.08a80.84 80.84 0 0 0 30.67-40.37l2.33 40.37z" fill="#bf6f96"/><path d="m396.11 326.13a24.66 24.66 0 0 0 -12.7-21.57 38.4 38.4 0 0 0 -45.29-48.93 38.4 38.4 0 0 0 -55.72-40.84 38.41 38.41 0 0 0 -70.15-4.79 38.4 38.4 0 0 0 -67.05-1.69 38.38 38.38 0 0 0 -55.63 40.42 38.44 38.44 0 0 0 -35.31 53.42 24.67 24.67 0 0 0 -10.85 42.16 21.74 21.74 0 1 0 33.33 0 24.61 24.61 0 0 0 8-18.19c0-.3 0-.6 0-.91a37.54 37.54 0 0 0 4.89.32 38.37 38.37 0 0 0 37.86-44.78 38.36 38.36 0 0 0 33-18.86 38.4 38.4 0 0 0 51.79-16.23 38.41 38.41 0 0 0 52 16.1 38.39 38.39 0 0 0 44.72 24.39 38.37 38.37 0 0 0 37.77 45.29h.57a24.71 24.71 0 0 0 7.43 12.89 21.74 21.74 0 1 0 33.33 0 24.61 24.61 0 0 0 8.01-18.2z" fill="#8ed685"/><path d="m178.21 189.46a38.21 38.21 0 0 1 22.94 7.62 38.3 38.3 0 0 0 -10.15 11.24 38.38 38.38 0 0 0 -55.63 40.42 38.42 38.42 0 0 0 -35.31 53.42 24.68 24.68 0 0 0 -17.06 33.06 24.58 24.58 0 0 1 -6.28 9.1 21.73 21.73 0 1 1 -33.32 0 24.66 24.66 0 0 1 10.85-42.16 38.42 38.42 0 0 1 35.31-53.42 38.38 38.38 0 0 1 55.63-40.42 38.35 38.35 0 0 1 33.02-18.86z" fill="#7dba73"/><path d="m80.93 337.53a2.08 2.08 0 0 1 -3 .52 44.22 44.22 0 0 1 49.07-73.46 2.07 2.07 0 0 1 .65 2.93z" fill="#99112e"/><path d="m124.18 272.75a35.8 35.8 0 0 0 -39.76 59.55z" fill="#d93a46"/><path d="m84.65 283.89a4.59 4.59 0 0 0 -5.1 7.63c2.11 1.4 7.34 2.43 8.75.32s-1.55-6.54-3.65-7.95z" fill="#d9727e"/><path d="m80.46 319a4.59 4.59 0 0 0 7.63 5.09c1.41-2.1 2.43-7.33.32-8.74s-6.54 1.55-7.95 3.65z" fill="#d9727e"/><path d="m76.67 301.4a4.58 4.58 0 1 0 2.24 8.89c2.45-.62 6.72-3.81 6.11-6.26s-5.89-3.25-8.35-2.63z" fill="#d9727e"/><path d="m110.66 273.78a4.59 4.59 0 1 1 7.63 5.09c-1.41 2.11-5.85 5.06-8 3.65s-1.04-6.64.37-8.74z" fill="#d9727e"/><path d="m93 277a4.58 4.58 0 0 1 9.07-1.34c.37 2.51-.94 7.67-3.45 8s-5.3-4.13-5.62-6.66z" fill="#d9727e"/><path d="m279.13 219.48a2.07 2.07 0 0 1 1.92 2.31 44.22 44.22 0 0 1 -88.11-6.22 2.09 2.09 0 0 1 2.23-2z" fill="#99112e"/><path d="m201.44 214a35.8 35.8 0 0 0 71.42 5z" fill="#d93a46"/><path d="m230.69 242.82a4.59 4.59 0 0 0 9.15.65c.18-2.53-1.52-7.58-4.05-7.76s-4.92 4.58-5.1 7.11z" fill="#d9727e"/><path d="m263.27 229.06a4.59 4.59 0 1 0 .64-9.15c-2.52-.18-7.57 1.53-7.75 4.05s4.58 4.92 7.11 5.1z" fill="#d9727e"/><path d="m249.85 241.07a4.58 4.58 0 1 0 6.62-6.34c-1.75-1.83-6.64-4-8.47-2.21s.1 6.73 1.85 8.55z" fill="#d9727e"/><path d="m209 225.23a4.59 4.59 0 1 1 .65-9.15c2.53.18 7.29 2.58 7.11 5.1s-5.21 4.23-7.76 4.05z" fill="#d9727e"/><path d="m220.62 239a4.58 4.58 0 1 1 -5.62-7.2c2-1.57 7.13-3 8.69-1s-1.08 6.65-3.07 8.2z" fill="#d9727e"/><path d="m387.23 301.44a2.08 2.08 0 0 1 2.89.81 44.22 44.22 0 0 1 -76.12 44.75 2.08 2.08 0 0 1 .7-2.92z" fill="#99112e"/><path d="m320.07 340.87a35.8 35.8 0 1 0 61.74-36.25z" fill="#d93a46"/><path d="m360.5 348.09a4.59 4.59 0 1 0 7.91-4.65c-1.28-2.18-5.54-5.38-7.73-4.1s-1.46 6.56-.18 8.75z" fill="#d9727e"/><path d="m379.58 318.31a4.59 4.59 0 0 0 -4.65-7.91c-2.18 1.28-5.38 5.54-4.1 7.73s6.56 1.46 8.75.18z" fill="#d9727e"/><path d="m375.31 335.81a4.59 4.59 0 0 0 1.87-9c-2.48-.52-7.72.49-8.23 3s3.88 5.48 6.36 6z" fill="#d9727e"/><path d="m332.68 345.84a4.58 4.58 0 0 1 -4.64-7.9c2.18-1.29 7.46-2 8.75.18s-1.92 6.44-4.11 7.72z" fill="#d9727e"/><path d="m350 350.65a4.59 4.59 0 1 1 -8.75-2.75c.76-2.42 4.19-6.5 6.61-5.74s2.94 6.07 2.14 8.49z" fill="#d9727e"/><circle cx="341.4" cy="293.8" fill="#253d3a" r="37.6"/><circle cx="341.4" cy="293.8" fill="#d2e65e" r="29.23"/><g fill="#f7f9d7"><path d="m346.94 273.7a5.54 5.54 0 0 0 -11.07-.19c-.05 3.06 2.32 9 5.38 9.09s5.64-5.84 5.69-8.9z"/><path d="m335.81 312.56a5.54 5.54 0 0 0 11.07.2c.05-3.06-2.32-9-5.38-9.09s-5.64 5.84-5.69 8.89z"/><path d="m361.06 298.7a5.54 5.54 0 1 0 .19-11.07c-3.06-.06-9 2.32-9.09 5.38s5.84 5.63 8.9 5.69z"/><path d="m322.2 287.57a5.54 5.54 0 1 0 -.2 11.07c3.06.05 9-2.33 9.09-5.38s-5.84-5.64-8.89-5.69z"/><path d="m359.08 284a5.53 5.53 0 0 0 -7.69-8c-2.2 2.12-4.75 8-2.63 10.23s8.12-.11 10.32-2.23z"/><path d="m323.73 303.6a5.53 5.53 0 1 0 7.69 8c2.2-2.12 4.75-8 2.62-10.23s-8.11.11-10.31 2.23z"/><path d="m351.21 311.47a5.53 5.53 0 1 0 8-7.69c-2.12-2.2-8-4.75-10.23-2.62s.1 8.11 2.23 10.31z"/><path d="m331.6 276.12a5.53 5.53 0 0 0 -8 7.69c2.12 2.2 8 4.75 10.23 2.63s-.11-8.12-2.23-10.32z"/></g><circle cx="79.69" cy="341.6" fill="#253d3a" r="37.6"/><circle cx="79.69" cy="341.6" fill="#d2e65e" r="29.23"/><path d="m85.23 321.5a5.54 5.54 0 1 0 -11.07-.19c-.06 3.06 2.32 9 5.38 9.09s5.63-5.84 5.69-8.9z" fill="#f7f9d7"/><path d="m74.1 360.36a5.54 5.54 0 0 0 11.07.2c0-3.06-2.33-9-5.38-9.09s-5.64 5.84-5.69 8.89z" fill="#f7f9d7"/><path d="m99.35 346.5a5.54 5.54 0 0 0 .19-11.07c-3.06-.05-9 2.32-9.09 5.38s5.84 5.63 8.9 5.69z" fill="#f7f9d7"/><path d="m60.48 335.37a5.54 5.54 0 1 0 -.19 11.07c3.06.05 9-2.32 9.09-5.38s-5.84-5.64-8.9-5.69z" fill="#f7f9d7"/><path d="m97.37 331.79a5.54 5.54 0 0 0 -7.7-8c-2.19 2.12-4.74 8-2.62 10.23s8.12-.1 10.32-2.23z" fill="#f7f9d7"/><path d="m62 351.4a5.54 5.54 0 0 0 7.69 8c2.2-2.13 4.75-8 2.62-10.24s-8.09.12-10.31 2.24z" fill="#f7f9d7"/><path d="m89.5 359.27a5.53 5.53 0 1 0 8-7.69c-2.12-2.2-8-4.75-10.23-2.62s.1 8.11 2.23 10.31z" fill="#f7f9d7"/><path d="m69.89 323.92a5.54 5.54 0 0 0 -8 7.69c2.13 2.2 8 4.75 10.23 2.63s-.12-8.12-2.23-10.32z" fill="#f7f9d7"/><circle cx="156.66" cy="247.19" fill="#253d3a" r="37.6"/><circle cx="156.66" cy="247.19" fill="#d2e65e" r="29.23"/><path d="m162.2 227.09a5.54 5.54 0 1 0 -11.07-.19c-.06 3.06 2.32 9 5.38 9.09s5.63-5.84 5.69-8.9z" fill="#f7f9d7"/><path d="m151.07 266a5.54 5.54 0 0 0 11.07.19c.05-3.05-2.33-9-5.38-9.08s-5.64 5.79-5.69 8.89z" fill="#f7f9d7"/><path d="m176.32 252.09a5.54 5.54 0 0 0 .19-11.07c-3.06-.06-9 2.32-9.09 5.38s5.84 5.6 8.9 5.69z" fill="#f7f9d7"/><path d="m137.45 241a5.54 5.54 0 1 0 -.19 11.07c3.06.05 9-2.33 9.09-5.38s-5.84-5.69-8.9-5.69z" fill="#f7f9d7"/><path d="m174.34 237.38a5.53 5.53 0 0 0 -7.69-8c-2.2 2.12-4.75 8-2.63 10.23s8.12-.1 10.32-2.23z" fill="#f7f9d7"/><path d="m139 257a5.53 5.53 0 1 0 7.69 8c2.2-2.12 4.75-8 2.62-10.23s-8.12.1-10.31 2.23z" fill="#f7f9d7"/><path d="m166.47 264.86a5.53 5.53 0 1 0 8-7.69c-2.12-2.2-8-4.75-10.23-2.62s.1 8.11 2.23 10.31z" fill="#f7f9d7"/><path d="m146.86 229.51a5.54 5.54 0 0 0 -8 7.69c2.13 2.2 8 4.75 10.23 2.63s-.09-8.12-2.23-10.32z" fill="#f7f9d7"/><path d="m323 261a32.94 32.94 0 0 0 -28.45-29.3 33.73 33.73 0 0 0 -4.29-.27 33.31 33.31 0 0 0 -6.75.69 32.15 32.15 0 0 0 -3.53.94c-.73.24-1.45.51-2.16.8a33 33 0 0 0 -19.15 21.28 33.3 33.3 0 0 0 -1 4.5 32.42 32.42 0 0 0 -.33 4.65v.26a32.92 32.92 0 0 0 46.43 29.75 32.29 32.29 0 0 0 4.58-2.52 33.08 33.08 0 0 0 12.53-15.41 32 32 0 0 0 1.47-4.79 33 33 0 0 0 .81-7.28c.04-1.11-.02-2.22-.16-3.3zm-17 20a22.9 22.9 0 0 1 -15.75 6.27 22.4 22.4 0 0 1 -5.15-.59 22.9 22.9 0 0 1 -17.25-17.43 22.41 22.41 0 0 1 -.54-4.73v-.19c0-.33 0-.65 0-1a22.86 22.86 0 0 1 7.9-16.36 21 21 0 0 1 2.06-1.6 22.6 22.6 0 0 1 9.92-3.8 21.76 21.76 0 0 1 3-.21 22.93 22.93 0 0 1 22.39 27.92c0 .1 0 .21-.07.32a22.8 22.8 0 0 1 -6.51 11.4z" fill="#fff"/><path d="m154.37 246.71q-4.31 1.78-8.5 3.83a21.66 21.66 0 0 1 2.45 3.54 22.08 22.08 0 0 1 1.68 3.92 22.41 22.41 0 0 1 1.17 6.64c.59-3.17 2.89-7.63 5.55-7.58a3.19 3.19 0 0 1 2.09 1zm6.8 17.08s0 0 0 0c0-.52-.06-1-.11-1.55 0-.34-.06-.68-.1-1a32.84 32.84 0 0 0 -5.74-14.81c-.63-.88-1.29-1.73-2-2.55v-.05a33.43 33.43 0 0 0 -4-3.94 32.82 32.82 0 0 0 -11.78-6.16c-.46-.14-.93-.26-1.4-.37a31.47 31.47 0 0 0 -4.58-.75c-1-.1-2-.15-3.08-.15a32.91 32.91 0 0 0 -32.38 26.64 33.33 33.33 0 0 0 -.58 6.2c0 .85 0 1.7.1 2.54a31.79 31.79 0 0 0 .58 4.16 32.86 32.86 0 0 0 2 6.33 32.32 32.32 0 0 0 2.22 4.25c.18.3.37.59.56.88a33.15 33.15 0 0 0 9.78 9.6 32.76 32.76 0 0 0 15.79 5.09c.62 0 1.25.05 1.88.05a32.85 32.85 0 0 0 26.54-13.46 32.91 32.91 0 0 0 6.11-15.25 33.87 33.87 0 0 0 .26-4.18c-.04-.52-.05-1.02-.07-1.52zm-32.88 24.45h-.29a22.7 22.7 0 0 1 -11.85-3.46 21.18 21.18 0 0 1 -2.92-2.16 22.35 22.35 0 0 1 -4-4.55c-.39-.57-.74-1.16-1.07-1.76a0 0 0 0 0 0 0 22.84 22.84 0 0 1 -2.74-9.54c0-.47-.05-1-.05-1.44 0-.72 0-1.43.1-2.14a22.55 22.55 0 0 1 1-4.81 22.88 22.88 0 0 1 21.41-16h.46a22.36 22.36 0 0 1 4.87.53c.59.12 1.16.27 1.73.44a22.76 22.76 0 0 1 9.86 6c.39.39.75.8 1.1 1.22a21.66 21.66 0 0 1 2.45 3.54 22.08 22.08 0 0 1 1.65 3.89 22.41 22.41 0 0 1 1.17 6.64v.66c0 .58 0 1.15-.07 1.72a22.62 22.62 0 0 1 -1.51 6.65c-.22.58-.47 1.15-.74 1.7a23 23 0 0 1 -20.62 12.87z" fill="#fff"/><path d="m113.32 317.35a33 33 0 0 0 -10.19-13.06 32.39 32.39 0 0 0 -3.09-2.11 32.79 32.79 0 0 0 -11.43-4.18c-.93-.16-1.87-.28-2.83-.35s-1.78-.11-2.68-.11a33.1 33.1 0 0 0 -7.37.83 32.59 32.59 0 0 0 -7.18 2.55c-.39.2-.78.4-1.16.61a33.49 33.49 0 0 0 -6.39 4.47c-.23.21-.47.43-.69.66a33.12 33.12 0 0 0 -5.08 6.22c-.06.11-.13.21-.2.32a32.77 32.77 0 0 0 -3.38 7.53 32.88 32.88 0 0 0 8.84 33.5c.41.4.84.78 1.28 1.16a33.1 33.1 0 0 0 7.08 4.63 33.47 33.47 0 0 0 12.37 3.19c.61 0 1.23.05 1.86.05h1.3a32.9 32.9 0 0 0 31.62-31.55c0-.43 0-.87 0-1.31a33 33 0 0 0 -2.68-13.05zm-18.14 32.54a22.77 22.77 0 0 1 -8.67 3.2 24 24 0 0 1 -3.42.25h-.41c-.49 0-1 0-1.46-.07a22.65 22.65 0 0 1 -3.8-.62 23.65 23.65 0 0 1 -4.27-1.57 22.63 22.63 0 0 1 -4.33-2.74 21.9 21.9 0 0 1 -3.27-3.19c-.24-.28-.47-.57-.69-.86a23 23 0 0 1 -4.67-13.87 23.05 23.05 0 0 1 .7-5.67s0 0 0 0a23.24 23.24 0 0 1 3.68-7.81q.19-.27.42-.54a22.53 22.53 0 0 1 4.76-4.59 20.41 20.41 0 0 1 1.86-1.21c.53-.32 1.08-.6 1.64-.87.43-.21.87-.4 1.32-.58a22.67 22.67 0 0 1 7.43-1.66h.23.83.42a22.72 22.72 0 0 1 11.8 3.51 22.11 22.11 0 0 1 2.29 1.64 22.92 22.92 0 0 1 7.06 9.88 21.7 21.7 0 0 1 .76 2.53 22.15 22.15 0 0 1 .58 3.76q.06.8.06 1.62a22.07 22.07 0 0 1 -.31 3.75 21.76 21.76 0 0 1 -1.24 4.54 22.82 22.82 0 0 1 -1.65 3.41 23 23 0 0 1 -3.4 4.38 22.47 22.47 0 0 1 -4.25 3.38z" fill="#fff"/><path d="m386.34 328a32.84 32.84 0 0 0 -9.76-16.4c-.46-.43-.93-.83-1.42-1.23l-.08-.06c-.42-.34-.85-.68-1.29-1a32.24 32.24 0 0 0 -5.8-3.39l-.3-.14a32.63 32.63 0 0 0 -9.08-2.54 34.36 34.36 0 0 0 -4.21-.26 33.17 33.17 0 0 0 -5.76.5l-.58.11c-1.07.21-2.13.47-3.16.78-.39.12-.78.24-1.17.38a32.88 32.88 0 0 0 -6.73 3.25c-.73.45-1.43.93-2.12 1.44a32.8 32.8 0 0 0 -11.11 14.4l-.15.37q-.44 1.14-.78 2.34a32.7 32.7 0 0 0 -1.37 9.39c0 1.15.06 2.29.17 3.41 0 .2.05.39.07.59a31.75 31.75 0 0 0 1 4.81 33 33 0 0 0 15.39 19.76c.75.43 1.52.83 2.31 1.21a32.9 32.9 0 0 0 12 3.06c.66 0 1.33.06 2 .06a32.77 32.77 0 0 0 14.82-3.52c.63-.32 1.24-.65 1.84-1a32.87 32.87 0 0 0 16.23-28.42 32.6 32.6 0 0 0 -.96-7.9zm-31.94-15c.64 0 1.27 0 1.89.08a23.22 23.22 0 0 1 5.92 1.28c.61.23 1.21.47 1.8.75a22.63 22.63 0 0 1 4.35 2.64q.61.46 1.2 1c.14.12.27.24.41.38a22.61 22.61 0 0 1 5.44 7.63 22.84 22.84 0 0 1 1.92 9.07v.12a22.87 22.87 0 0 1 -7 16.47 20.21 20.21 0 0 1 -1.63 1.44c-.52.42-1.07.82-1.63 1.2a22.81 22.81 0 0 1 -12.71 3.84 22.07 22.07 0 0 1 -3.75-.31c-.31-.05-.63-.1-.94-.17a22.94 22.94 0 0 1 -16.25-13.08 22.66 22.66 0 0 1 -2-8.44c0-.31 0-.63 0-1 0-.59 0-1.17.07-1.75a22.71 22.71 0 0 1 .63-3.89c.13-.51.28-1 .44-1.51a22.72 22.72 0 0 1 3.07-6.08l.12-.17a23.13 23.13 0 0 1 10.85-8.18 22.23 22.23 0 0 1 3.83-1 21.6 21.6 0 0 1 3.34-.32z" fill="#fff"/><path d="m227.38 215.83a0 0 0 0 0 0 0 33 33 0 0 0 -12.53-10 31.91 31.91 0 0 0 -6.92-2.28 33.08 33.08 0 0 0 -13.49 0 32.44 32.44 0 0 0 -8 2.79c-.68.34-1.34.7-2 1.08a33 33 0 0 0 -8 6.64c-.23.26-.45.51-.67.78a32.89 32.89 0 0 0 -6.63 13.16s0 .05 0 .08 0 0 0 .06a32.84 32.84 0 0 0 -.86 6.85v.69a32.78 32.78 0 0 0 .32 4.57c.05.43.12.85.19 1.27.13.68.27 1.36.44 2a31.94 31.94 0 0 0 1.95 5.65s0 0 0 .05c.26.59.54 1.16.84 1.73a32.93 32.93 0 0 0 9 10.73l.68.52a33.06 33.06 0 0 0 5 3.05c.75.36 1.51.7 2.28 1l1 .38.83.28a32.91 32.91 0 0 0 33.28-7.75 3.51 3.51 0 0 0 .34-.33 33.48 33.48 0 0 0 5.57-7.23 32.9 32.9 0 0 0 2.24-5c.3-.83.56-1.69.78-2.56a32 32 0 0 0 1.05-7.7c0-.1 0-.21 0-.31v-.29a32.77 32.77 0 0 0 -6.69-19.91zm-24.38 42.74c-.6.05-1.21.08-1.83.08a22.9 22.9 0 0 1 -8.22-1.52 21.72 21.72 0 0 1 -3.89-1.94 22.29 22.29 0 0 1 -3.62-2.8 22 22 0 0 1 -3.66-4.43 22.4 22.4 0 0 1 -2.62-5.78l-.15-.52a21.67 21.67 0 0 1 -.55-2.71 23.1 23.1 0 0 1 -.23-3.24 21 21 0 0 1 .1-2.11 22.56 22.56 0 0 1 1-4.89 23 23 0 0 1 4.29-7.76 22.19 22.19 0 0 1 1.95-2 22.83 22.83 0 0 1 8.22-4.92c.46-.16.93-.3 1.41-.43a23 23 0 0 1 15 1.06 23 23 0 0 1 13.32 16 20.54 20.54 0 0 1 .45 2.86 13.3 13.3 0 0 1 .09 1.55v.63a22.81 22.81 0 0 1 -3.68 12.46c-.33.51-.68 1-1.06 1.49a21.6 21.6 0 0 1 -2.53 2.79 20 20 0 0 1 -2.43 2 22.7 22.7 0 0 1 -11.36 4.13z" fill="#fff"/><rect fill="#eaac2e" height="78.89" rx="6" transform="matrix(.978 .211 -.211 .978 53.58 -52.43)" width="17.24" x="264.24" y="185.8"/><path d="m268.84 264.47a6.28 6.28 0 0 1 -1.72-.11l-5.12-1.11a6 6 0 0 1 -4.6-7.13l14.08-65.37a6 6 0 0 1 7.14-4.61l5.11 1.1a6.08 6.08 0 0 1 1.61.6 6 6 0 0 0 -5.43 4.72l-14.09 65.38a6 6 0 0 0 3.02 6.53z" fill="#ce962a"/><rect fill="#eaac2e" height="78.89" rx="6" transform="matrix(.814 -.581 .581 .814 -154.74 93.46)" width="17.24" x="59.87" y="248.8"/><path d="m94.8 317.62a6.38 6.38 0 0 1 -1.24 1.19l-4.26 3a6 6 0 0 1 -8.37-1.4l-38.87-54.41a6 6 0 0 1 1.4-8.37l4.26-3a6.36 6.36 0 0 1 1.53-.79 6 6 0 0 0 -.17 7.19l38.86 54.43a6 6 0 0 0 6.86 2.16z" fill="#ce962a"/><rect fill="#eaac2e" height="78.89" rx="6" transform="matrix(.929 -.37 .37 .929 -73.63 74.18)" width="17.24" x="147.98" y="189.63"/><path d="m175.13 263.88a6.1 6.1 0 0 1 -1.49.86l-4.86 1.94a6 6 0 0 1 -7.8-3.36l-24.74-62.13a6 6 0 0 1 3.36-7.8l4.86-1.94a5.87 5.87 0 0 1 1.67-.39 6 6 0 0 0 -1.88 6.94l24.75 62.13a6 6 0 0 0 6.13 3.75z" fill="#ce962a"/><rect fill="#eaac2e" height="78.89" rx="6" transform="matrix(.995 -.096 .096 .995 -21.58 18.21)" width="17.24" x="169.63" y="193.71"/><path d="m186.33 271.75a5.77 5.77 0 0 1 -1.66.41l-5.21.51a6 6 0 0 1 -6.56-5.4l-6.42-66.57a6 6 0 0 1 5.4-6.55l5.2-.51a6.14 6.14 0 0 1 1.72.09 6 6 0 0 0 -3.74 6.14l6.42 66.57a6 6 0 0 0 4.85 5.31z" fill="#ce962a"/><rect fill="#eaac2e" height="78.89" rx="6" transform="matrix(.393 -.919 .919 .393 -250.42 261.67)" width="17.24" x="64.42" y="281.12"/><path d="m110.78 332a6.18 6.18 0 0 1 -.44 1.66l-2.06 4.81a6 6 0 0 1 -7.88 3.16l-61.49-26.3a6 6 0 0 1 -3.16-7.88l2.06-4.81a6.1 6.1 0 0 1 .9-1.47 6 6 0 0 0 3.59 6.23l61.49 26.3a6 6 0 0 0 6.99-1.7z" fill="#ce962a"/><rect fill="#eaac2e" height="78.89" rx="6" transform="matrix(.803 .595 -.595 .803 196.97 -128.24)" width="17.24" x="284.08" y="194.76"/><path d="m272.85 268.27a6 6 0 0 1 -1.52-.81l-4.2-3.12a6 6 0 0 1 -1.25-8.4l39.82-53.73a6 6 0 0 1 8.4-1.25l4.2 3.12a6.08 6.08 0 0 1 1.22 1.21 6 6 0 0 0 -6.9 2.05l-39.81 53.73a6 6 0 0 0 .04 7.2z" fill="#ce962a"/><rect fill="#eaac2e" height="78.89" rx="6" transform="matrix(.402 .916 -.916 .402 471.48 -145.28)" width="17.24" x="338.32" y="248.8"/><path d="m312.79 308a5.93 5.93 0 0 1 -.91-1.45l-2.1-4.79a6 6 0 0 1 3.08-7.91l61.24-26.87a6 6 0 0 1 7.9 3.02l2.11 4.79a6.21 6.21 0 0 1 .45 1.66 6 6 0 0 0 -7-1.64l-61.24 26.87a6 6 0 0 0 -3.53 6.32z" fill="#ce962a"/><path d="m214.47 234.79a157 157 0 0 1 157 157v6a11.27 11.27 0 0 1 -11.3 11.21h-291.39a11.27 11.27 0 0 1 -11.27-11.27v-6a157 157 0 0 1 157-157z" fill="#f0c788"/><path d="m129.15 391.76v5.95a11.28 11.28 0 0 0 11.27 11.29h-71.64a11.28 11.28 0 0 1 -11.27-11.27v-5.95a157.08 157.08 0 0 1 192.78-152.88 157 157 0 0 0 -121.14 152.86z" fill="#d6af7c"/><circle cx="250.29" cy="330.9" fill="#d6af7c" r="11.67"/><circle cx="197.57" cy="287.84" fill="#d6af7c" r="11.67"/><circle cx="322.34" cy="384.03" fill="#d6af7c" r="11.67"/><circle cx="185.9" cy="365.92" fill="#d6af7c" r="7.65"/><circle cx="292.7" cy="287.84" fill="#d6af7c" r="7.65"/><circle cx="238.62" cy="395.7" fill="#d6af7c" r="7.65"/><circle cx="322.34" cy="331.71" fill="#d6af7c" r="7.65"/></g></svg>