<svg height="512" viewBox="0 0 512 512" width="512" xmlns="http://www.w3.org/2000/svg"><g id="BULINE"><circle cx="256" cy="256" fill="#854639" r="256"/></g><g id="Icons"><path d="m177.55 190.16c12.45-29.35-24.55-41.23-24.55-41.23-12-23.31-35.14-11.52-42.78-6.77-8.94 1-34.46 6.05-29.44 31.76 0 0-21.76 32.22 6.14 47.61 0 0-15 30.94 21.84 42.18 0 0 7.2 36 49.69 23.44v.09c.59-.2 1.16-.41 1.72-.63l1.74-.57v-.09c41.15-16.41 24.58-49.14 24.58-49.14 21.99-31.61-8.94-46.65-8.94-46.65z" fill="#7bba71"/><path d="m174.81 205.57a6.94 6.94 0 0 0 -9.28 3.21l-14.21 29.22-9.48-27.41 20.28-41.74a6.93 6.93 0 0 0 -3.21-9.27 6.94 6.94 0 0 0 -9.28 3.21l-14.21 29.25-11.55-33.36a6.94 6.94 0 1 0 -13.12 4.54l12.63 36.49-33.47-16.23a6.94 6.94 0 0 0 -9.28 3.21 7 7 0 0 0 3.21 9.31l44.33 21.53a6.39 6.39 0 0 0 1.54.53l9.57 27.67-33.47-16.26a6.94 6.94 0 0 0 -6.06 12.49l44.32 21.53a6.39 6.39 0 0 0 1.54.53l3.73 10.77a6.94 6.94 0 1 0 13.12-4.54l-4.72-13.64 20.26-41.77a6.93 6.93 0 0 0 -3.21-9.27z" fill="#87d18e"/><path d="m414.77 232.15c30.33-9.76 15.14-45.55 15.14-45.55 9.85-24.27-14.23-34.13-22.82-36.8-6.58-6.13-27.09-22.14-43.27-1.55 0 0-38.61 4.57-32 35.75 0 0-33.23 8.85-17.67 44.09 0 0-22.53 29 14.72 52.94l-.05.08 1.6.89c.51.32 1 .63 1.57.95l.05-.08c39.3 20.43 53.26-13.5 53.26-13.5 38.28-3.97 29.47-37.22 29.47-37.22z" fill="#7bba71"/><path d="m401.31 240.15a6.94 6.94 0 0 0 -8.49-4.93l-31.43 8.35 14.55-25.08 44.85-11.92a6.94 6.94 0 0 0 4.93-8.49 7 7 0 0 0 -8.49-4.93l-31.44 8.35 17.72-30.5a6.94 6.94 0 1 0 -12-7l-19.38 33.4-9.55-36a6.94 6.94 0 0 0 -8.49-4.93 7 7 0 0 0 -4.93 8.49l12.65 47.63a7.45 7.45 0 0 0 .61 1.51l-14.7 25.33-9.55-36a6.94 6.94 0 0 0 -13.42 3.57l12.65 47.7a6.89 6.89 0 0 0 .6 1.51l-5.72 9.85a6.94 6.94 0 1 0 12 7l7.24-12.48 44.85-11.91a7 7 0 0 0 4.93-8.49z" fill="#87d18e"/><path d="m272.45 195.82c19.76-25-12.79-46.27-12.79-46.27-5.33-25.64-30.82-20.43-39.44-17.87-8.89-1.42-34.83-3.3-36.81 22.82 0 0-29.53 25.29-6.71 47.53 0 0-22.68 25.85 9.88 46.46 0 0-2.59 36.59 41.7 35.78v.09l1.83-.14 1.83-.09v-.13c44-4.92 36.73-40.87 36.73-40.87 29.61-24.6 3.78-47.31 3.78-47.31z" fill="#7bba71"/><path d="m265.72 210a7 7 0 0 0 -9.8.64l-21.46 24.36-1.87-28.93 30.62-34.87a7 7 0 0 0 -.64-9.8 6.93 6.93 0 0 0 -9.79.63l-21.46 24.44-2.32-35.2a6.94 6.94 0 1 0 -13.85.9l2.5 38.53-28-24.56a7 7 0 0 0 -9.8.64 7 7 0 0 0 .64 9.8l37 32.52a7 7 0 0 0 1.34.91l1.89 29.22-27.95-24.55a6.94 6.94 0 1 0 -9.17 10.43l37 32.52a7 7 0 0 0 1.35.92l.73 11.36a6.94 6.94 0 0 0 13.86-.9l-.94-14.39 30.63-34.87a7 7 0 0 0 -.64-9.8z" fill="#87d18e"/><path d="m355.32 213.43c27.36-16.32 4.53-47.79 4.53-47.79 4.15-25.86-21.52-30.07-30.49-30.75-7.8-4.49-31.37-15.49-42.53 8.21 0 0-36.59 13.12-23.19 42 0 0-30.4 16.08-7.32 46.93 0 0-15.45 33.27 26.22 48.28v.09c.6.19 1.18.35 1.76.52l1.75.57v-.1c42.89 11.09 48.88-25.1 48.88-25.1 36.44-12.44 20.39-42.86 20.39-42.86z" fill="#7bba71"/><path d="m344 224.24a6.94 6.94 0 0 0 -9.38-2.9l-28.76 15.19 8.55-27.71 41-21.67a6.94 6.94 0 0 0 2.89-9.38 6.94 6.94 0 0 0 -9.38-2.9l-28.75 15.19 10.41-33.73a6.94 6.94 0 1 0 -13.27-4.09l-11.31 36.89-17.38-32.9a6.94 6.94 0 0 0 -9.38-2.89 6.94 6.94 0 0 0 -2.89 9.38l23 43.57a6.76 6.76 0 0 0 .92 1.34l-8.63 28-17.38-32.9a6.94 6.94 0 0 0 -12.26 6.46l23 43.57a6.8 6.8 0 0 0 .93 1.34l-3.38 10.9a6.94 6.94 0 0 0 13.27 4.1l4.25-13.79 41-21.67a6.94 6.94 0 0 0 2.9-9.38z" fill="#87d18e"/><ellipse cx="255.54" cy="320.24" fill="#fff" rx="205" ry="68.08"/><path d="m440.63 222.06a2.59 2.59 0 0 1 3.58 1.07 54.94 54.94 0 0 1 -95.51 54.05 2.59 2.59 0 0 1 .93-3.62z" fill="#99112e"/><path d="m356.42 269.71a44.48 44.48 0 0 0 77.42-43.8z" fill="#d93a46"/><g fill="#d9727e"><path d="m406.5 279.48a5.7 5.7 0 0 0 9.92-5.61c-1.55-2.74-6.78-6.8-9.52-5.25s-1.9 8.12-.4 10.86z"/><path d="m430.79 242.87a5.69 5.69 0 0 0 -5.61-9.91c-2.74 1.54-6.8 6.77-5.25 9.51s8.12 1.95 10.86.4z"/><path d="m425.14 264.52a5.7 5.7 0 1 0 2.5-11.12c-3.07-.68-9.59.47-10.28 3.54s4.71 6.89 7.78 7.58z"/><path d="m372 276.14a5.7 5.7 0 0 1 -5.61-9.92c2.74-1.54 9.31-2.33 10.86.4s-2.52 7.97-5.25 9.52z"/><path d="m393.46 282.45a5.7 5.7 0 0 1 -10.82-3.59c1-3 5.34-8 8.32-7s3.49 7.6 2.5 10.59z"/></g><path d="m141.79 278.67a2.59 2.59 0 0 1 .54 3.69 54.93 54.93 0 0 1 -89.33-63.76 2.58 2.58 0 0 1 3.66-.69z" fill="#99112e"/><path d="m63 222.45a44.47 44.47 0 1 0 72.39 51.68z" fill="#d93a46"/><path d="m75.33 272a5.7 5.7 0 1 0 9.27 6.62c1.83-2.56 3.31-9 .75-10.84s-8.19 1.63-10.02 4.22z" fill="#d9727e"/><path d="m118.77 278.53a5.7 5.7 0 0 0 6.62-9.27c-2.56-1.83-9-3.31-10.85-.75s1.67 8.19 4.23 10.02z" fill="#d9727e"/><path d="m96.76 282.55a5.7 5.7 0 1 0 11.13-2.43c-.67-3.07-4.47-8.5-7.54-7.83s-4.26 7.19-3.59 10.26z" fill="#d9727e"/><path d="m63.79 239.28a5.7 5.7 0 0 1 6.62-9.28c2.56 1.83 6 7.46 4.22 10s-8.28 1.1-10.84-.72z" fill="#d9727e"/><path d="m67.13 261.4a5.7 5.7 0 1 1 -1.32-11.32c3.13-.36 9.49 1.47 9.86 4.59s-5.42 6.33-8.54 6.73z" fill="#d9727e"/><path d="m193.12 211.56a2.57 2.57 0 0 1 .38-3.71 54.93 54.93 0 0 1 71.1 83.58 2.58 2.58 0 0 1 -3.72-.23z" fill="#99112e"/><path d="m255.82 285.26a44.48 44.48 0 0 0 -57.64-67.75z" fill="#d93a46"/><path d="m256 234.23a5.7 5.7 0 0 0 -7.39-8.68c-2.39 2-5.39 7.95-3.35 10.34s8.29.38 10.74-1.66z" fill="#d9727e"/><path d="m215.41 217.3a5.7 5.7 0 0 0 -8.68 7.38c2 2.4 8 5.4 10.34 3.36s.38-8.35-1.66-10.74z" fill="#d9727e"/><path d="m237.74 218.75a5.7 5.7 0 0 0 -11.39-.35c-.1 3.15 2.26 9.33 5.41 9.43s5.88-5.93 5.98-9.08z" fill="#d9727e"/><path d="m259.19 268.75a5.7 5.7 0 0 1 -8.68 7.39c-2-2.4-4.06-8.71-1.66-10.75s8.3.97 10.34 3.36z" fill="#d9727e"/><path d="m261.33 246.48a5.7 5.7 0 0 1 -1.48 11.3c-3.12-.41-8.85-3.73-8.44-6.85s6.8-4.86 9.92-4.45z" fill="#d9727e"/><rect fill="#d7932a" height="108" rx="8.52" transform="matrix(-.328 .945 -.945 -.328 803.8 7.61)" width="17.05" x="390.67" y="235.82"/><rect fill="#f0c788" height="108" rx="8.52" transform="matrix(.295 .956 -.956 .295 364.96 98.05)" width="17.05" x="107.54" y="242.24"/><rect fill="#f0c788" height="108" rx="8.52" transform="matrix(-.418 .909 -.909 -.418 731.33 110.83)" width="17.05" x="321.62" y="235.82"/><rect fill="#f6e0b8" height="108" rx="8.52" transform="matrix(.087 .996 -.996 .087 519.64 41.43)" width="17.05" x="228.69" y="250.25"/><rect fill="#f6e0b8" height="108" rx="8.52" transform="matrix(-.306 .952 -.952 -.306 519.2 170.13)" width="17.05" x="189.07" y="220.32"/><rect fill="#f6e0b8" height="108" rx="8.52" transform="matrix(-.675 .737 -.737 -.675 689.91 244.97)" width="17.05" x="282.52" y="220.32"/><rect fill="#619e65" height="108" rx="8.52" transform="matrix(-.675 .737 -.737 -.675 612.31 271.42)" width="17.05" x="237.9" y="216.46"/><rect fill="#619e65" height="108" rx="8.52" transform="matrix(-.978 -.21 .21 -.978 315.66 537.21)" width="17.05" x="177.78" y="197.88"/><rect fill="#619e65" height="108" rx="8.52" transform="matrix(-.995 .098 -.098 -.995 573.09 500.6)" width="17.05" x="265.78" y="210.31"/><rect fill="#619e65" height="108" rx="8.52" transform="matrix(-.619 .786 -.786 -.619 406.17 358.56)" width="17.05" x="107.54" y="223.85"/><rect fill="#619e65" height="108" rx="8.52" transform="matrix(-.853 -.523 .523 -.853 508.43 662.76)" width="17.05" x="339.17" y="205.67"/><rect fill="#f6e0b8" height="108" rx="8.52" transform="matrix(.426 .905 -.905 .426 499 -189.91)" width="17.05" x="390.67" y="244.37"/><rect fill="#c27135" height="108" rx="8.52" transform="matrix(.32 .95 -.95 .32 518.33 -156.57)" width="17.05" x="359.69" y="228.74"/><rect fill="#c27135" height="108" rx="8.52" transform="matrix(-.076 .997 -.997 -.076 387.99 216.74)" width="17.05" x="85.06" y="234.11"/><rect fill="#c27135" height="108" rx="8.52" transform="matrix(.728 .686 -.686 .728 230.1 -14.47)" width="17.05" x="124.76" y="228.74"/><rect fill="#c27135" height="108" rx="8.52" transform="matrix(.728 .686 -.686 .728 260.38 -127.64)" width="17.05" x="282.52" y="210.31"/><rect fill="#c27135" height="108" rx="8.52" transform="matrix(.416 .909 -.909 .416 372.34 3.57)" width="17.05" x="174.86" y="237.77"/><rect fill="#d7932a" height="108" rx="8.52" transform="matrix(.038 .999 -.999 .038 477.96 79.68)" width="17.05" x="189.07" y="234.11"/><rect fill="#e17580" height="108" rx="8.52" transform="matrix(-.832 .554 -.554 -.832 725.52 305.05)" width="17.05" x="308.08" y="208.3"/><rect fill="#e17580" height="108" rx="8.52" transform="matrix(-.832 .554 -.554 -.832 462.36 384.56)" width="17.05" x="164.47" y="208.24"/><path d="m458.92 412.08a256 256 0 0 1 -405.84 0z" fill="#313d74"/><path d="m473.77 319.92a77.14 77.14 0 0 1 -2.32 9.82 78.67 78.67 0 0 1 -75.28 55.74h-281.25a78.61 78.61 0 0 1 -77.6-65.56 7.67 7.67 0 0 1 -.12-1.34 7.87 7.87 0 0 1 7.87-7.84h420.93a7.87 7.87 0 0 1 7.77 9.18z" fill="#aadee6"/><path d="m219.82 385.48h-104.9a78.71 78.71 0 0 1 -77.61-65.56 8.75 8.75 0 0 1 -.11-1.34 7.87 7.87 0 0 1 7.87-7.84h104.93a7.87 7.87 0 0 0 -7.87 7.84 7.67 7.67 0 0 0 .12 1.34 78.7 78.7 0 0 0 77.57 65.56z" fill="#9ccccf"/><path d="m111.89 385.48h287.3a0 0 0 0 1 0 0v10.26a16.35 16.35 0 0 1 -16.35 16.35h-254.6a16.35 16.35 0 0 1 -16.35-16.35v-10.26a0 0 0 0 1 0 0z" fill="#87afaf"/><path d="m473.77 319.92a77.14 77.14 0 0 1 -2.32 9.82h-431.82a78.86 78.86 0 0 1 -2.31-9.82 7.67 7.67 0 0 1 -.12-1.34 7.87 7.87 0 0 1 7.87-7.84h420.93a7.87 7.87 0 0 1 7.77 9.18z" fill="#fff"/><path d="m142.22 319.92a77.14 77.14 0 0 0 2.32 9.82h-104.91s0-.05 0-.07l-.57-2c-.23-.83-.44-1.67-.65-2.52-.07-.29-.14-.58-.2-.87-.15-.62-.28-1.26-.4-1.88-.18-.83-.33-1.67-.47-2.51a7.67 7.67 0 0 1 -.12-1.34 7.87 7.87 0 0 1 7.87-7.84h104.91a7.87 7.87 0 0 0 -7.87 7.84 7.67 7.67 0 0 0 .09 1.37z" fill="#cfd1d1"/><circle cx="226.35" cy="300.1" fill="#f0c788" r="9.26"/><circle cx="300.3" cy="287.03" fill="#f0c788" r="9.26"/><circle cx="205.38" cy="261.44" fill="#f0c788" r="9.26"/><circle cx="95.09" cy="297.24" fill="#f0c788" r="9.26"/><circle cx="388.14" cy="298.37" fill="#f0c788" r="9.26"/></g></svg>