<svg height="512" viewBox="0 0 512 512" width="512" xmlns="http://www.w3.org/2000/svg"><g id="BULINE"><circle cx="256" cy="256" fill="#313d74" r="256"/></g><g id="Icons"><path d="m233.1 161.37c5.42-5 5.69-14.45 1.76-25.4 5.53 1.37 10.27.82 13.34-2 5.23-4.81 4.26-15-1.5-26.12a25.11 25.11 0 0 0 3.41-2.33c9.4-7.63 11.63-20.46 5-28.66s-19.66-8.64-29.06-1a24.61 24.61 0 0 0 -4.09 4.21c-11.37-7.79-22.47-10.16-28.05-5-2.76 2.55-3.79 6.61-3.3 11.51-11.52-5.82-22-6.78-27.76-1.43-10 9.25-2.45 33.83 16.95 54.89s43.26 30.58 53.3 21.33z" fill="#8cd483"/><path d="m241 94.24c-.31.25-.61.51-.9.77a6.32 6.32 0 0 1 -7.35.82c-9.84-5.64-19-6.92-23.88-2.41a10 10 0 0 0 -2.7 4.3 6.3 6.3 0 0 1 -7.91 4.12c-8.52-2.86-15.91-2.53-20.45 1.66-7.77 7.16-5 23.48 5.65 40.25q-1.84-1.81-3.64-3.77c-19.41-21.06-27-45.63-17-54.89 5.81-5.35 16.25-4.39 27.77 1.43-.49-4.9.53-9 3.3-11.5 5.57-5.14 16.67-2.77 28 5a25 25 0 0 1 4.11-4.19c9.4-7.63 22.41-7.18 29.07 1a17.55 17.55 0 0 1 3.81 12.17 23.16 23.16 0 0 0 -17.88 5.24z" fill="#7fbd78"/><path d="m164.51 91.29c-4.4-5.91-13.77-7.17-25.07-4.4 1.93-5.36 1.88-10.13-.61-13.48-4.24-5.7-14.48-5.8-26.14-1.22a24.71 24.71 0 0 0 -2-3.64c-6.61-10.15-19.14-13.7-28-7.94s-10.65 18.66-4 28.8a25.11 25.11 0 0 0 3.75 4.51c-8.9 10.49-12.44 21.28-7.88 27.37 2.24 3 6.17 4.46 11.09 4.48-7 10.85-9 21.12-4.31 27.46 8.16 11 33.39 6 56.35-11.14s34.98-39.85 26.82-50.8z" fill="#8cd483"/><path d="m98.57 76.47c.22.34.44.67.67 1a6.29 6.29 0 0 1 .05 7.38c-6.63 9.21-8.85 18.17-4.88 23.51a10 10 0 0 0 4 3.13 6.28 6.28 0 0 1 3.27 8.3c-3.68 8.21-4.18 15.54-.48 20.5 6.31 8.47 22.83 7.41 40.62-1.43-1.33 1.1-2.71 2.17-4.13 3.23-23 17.11-48.2 22.1-56.36 11.14-4.71-6.33-2.67-16.61 4.32-27.46-4.92 0-8.85-1.47-11.1-4.48-4.53-6.08-1-16.87 7.92-27.37a24.67 24.67 0 0 1 -3.76-4.5c-6.61-10.14-4.81-23 4-28.8a17.52 17.52 0 0 1 12.52-2.51 23.15 23.15 0 0 0 3.34 18.36z" fill="#7fbd78"/><path d="m222.26 86.07c.6-7.34-5.61-14.48-15.92-19.87 5-2.74 8.11-6.35 8.45-10.51.58-7.09-7-13.93-18.82-18.19a23.89 23.89 0 0 0 .93-4c1.74-12-5.31-22.93-15.76-24.44s-20.31 7-22 19a25.23 25.23 0 0 0 -.16 5.87c-13.64 2-23.4 7.75-24 15.31-.31 3.75 1.69 7.43 5.37 10.7-12.42 3.53-20.74 9.9-21.38 17.77-1.11 13.6 21.12 26.53 49.66 28.86s52.51-6.89 53.63-20.5z" fill="#8cd483"/><path d="m182.54 31.39c-.06.39-.1.79-.14 1.18a6.32 6.32 0 0 1 -4.85 5.58c-11.06 2.53-18.65 7.79-19.19 14.41a10 10 0 0 0 .93 5 6.29 6.29 0 0 1 -3 8.39c-8.2 3.68-13.41 8.93-13.91 15.09-.86 10.53 12.25 20.65 31.44 25.76-1.72-.05-3.47-.16-5.23-.3-28.54-2.33-50.78-15.25-49.67-28.87.64-7.86 9-14.23 21.38-17.77-3.68-3.26-5.67-6.94-5.37-10.69.62-7.55 10.38-13.33 24-15.31a25.23 25.23 0 0 1 .16-5.87c1.73-12 11.61-20.47 22.06-19a17.5 17.5 0 0 1 11.05 6.39 23.15 23.15 0 0 0 -9.66 16.01z" fill="#7fbd78"/><circle cx="196.2" cy="119.77" fill="#253d3a" r="43.56"/><circle cx="196.2" cy="119.77" fill="#d2e65e" r="33.86"/><g fill="#f7f9d7"><path d="m202.61 96.49a6.41 6.41 0 0 0 -12.82-.22c-.07 3.54 2.69 10.47 6.23 10.53s6.53-6.8 6.59-10.31z"/><path d="m189.72 141.51a6.41 6.41 0 1 0 12.82.22c.06-3.54-2.69-10.46-6.23-10.52s-6.53 6.79-6.59 10.3z"/><path d="m219 125.45a6.41 6.41 0 1 0 .23-12.82c-3.54-.06-10.47 2.69-10.53 6.23s6.72 6.53 10.3 6.59z"/><path d="m174 112.56a6.41 6.41 0 1 0 -.23 12.82c3.54.06 10.47-2.69 10.53-6.23s-6.81-6.53-10.3-6.59z"/><path d="m216.67 108.42a6.41 6.41 0 0 0 -8.91-9.23c-2.55 2.46-5.5 9.31-3 11.85s9.36-.16 11.91-2.62z"/><path d="m175.72 131.13a6.41 6.41 0 0 0 8.91 9.23c2.55-2.46 5.5-9.31 3-11.86s-9.36.17-11.91 2.63z"/><path d="m207.55 140.25a6.41 6.41 0 0 0 9.23-8.91c-2.46-2.55-9.3-5.5-11.85-3s.16 9.36 2.62 11.91z"/><path d="m184.84 99.3a6.41 6.41 0 1 0 -9.23 8.91c2.47 2.55 9.31 5.5 11.86 3s-.17-9.36-2.63-11.91z"/></g><circle cx="131.76" cy="129.19" fill="#253d3a" r="43.56"/><circle cx="131.76" cy="129.19" fill="#d2e65e" r="33.86"/><path d="m138.17 105.91a6.41 6.41 0 1 0 -12.82-.22c-.06 3.54 2.69 10.47 6.23 10.53s6.53-6.77 6.59-10.31z" fill="#f7f9d7"/><path d="m125.28 150.93a6.42 6.42 0 0 0 12.83.22c.06-3.54-2.69-10.47-6.23-10.53s-6.54 6.77-6.6 10.31z" fill="#f7f9d7"/><path d="m154.53 134.87a6.42 6.42 0 0 0 .22-12.83c-3.54-.06-10.47 2.69-10.53 6.23s6.78 6.53 10.31 6.6z" fill="#f7f9d7"/><path d="m109.51 122a6.42 6.42 0 0 0 -.22 12.83c3.54.06 10.47-2.69 10.53-6.23s-6.77-6.6-10.31-6.6z" fill="#f7f9d7"/><path d="m152.24 117.83a6.41 6.41 0 1 0 -8.91-9.22c-2.55 2.46-5.5 9.3-3 11.85s9.36-.17 11.91-2.63z" fill="#f7f9d7"/><path d="m111.29 140.55a6.41 6.41 0 1 0 8.91 9.22c2.55-2.46 5.5-9.3 3-11.85s-9.36.17-11.91 2.63z" fill="#f7f9d7"/><path d="m143.12 149.66a6.41 6.41 0 0 0 9.23-8.91c-2.46-2.54-9.31-5.5-11.86-3s.17 9.37 2.63 11.91z" fill="#f7f9d7"/><path d="m120.41 108.72a6.41 6.41 0 0 0 -9.23 8.91c2.46 2.54 9.31 5.5 11.85 3s-.16-9.37-2.62-11.91z" fill="#f7f9d7"/><path d="m144.42 92a2.41 2.41 0 0 1 1.12-3.29 51.22 51.22 0 0 1 47.17 90.8 2.41 2.41 0 0 1 -3.34-1z" fill="#99112e"/><path d="m186 172.06a41.47 41.47 0 0 0 -38.23-73.61z" fill="#d93a46"/><path d="m196.79 125.72a5.31 5.31 0 0 0 -4.9-9.43c-2.6 1.35-6.56 6.09-5.21 8.69s7.5 2.09 10.11.74z" fill="#d9727e"/><path d="m163.49 101.86a5.31 5.31 0 0 0 -9.43 4.9c1.35 2.6 6.09 6.56 8.69 5.21s2.09-7.5.74-10.11z" fill="#d9727e"/><path d="m183.47 107.85a5.31 5.31 0 0 0 -10.28-2.7c-.74 2.84.11 8.95 2.95 9.7s6.59-4.17 7.33-7z" fill="#d9727e"/><path d="m192.52 157.76a5.31 5.31 0 0 1 -9.43 4.9c-1.35-2.6-1.86-8.76.74-10.11s7.34 2.61 8.69 5.21z" fill="#d9727e"/><path d="m199.12 138a5.31 5.31 0 0 1 -3.7 10c-2.75-1-7.27-5.24-6.24-8s7.19-3 9.94-2z" fill="#d9727e"/><path d="m116.91 148.65a2.41 2.41 0 0 1 -1-3.33 51.22 51.22 0 0 1 91.29 46.22 2.41 2.41 0 0 1 -3.29 1.15z" fill="#99112e"/><path d="m197.41 189.4a41.47 41.47 0 1 0 -74-37.46z" fill="#d93a46"/><path d="m179.12 145.48a5.31 5.31 0 1 0 -9.48-4.8c-1.33 2.62-1.78 8.78.84 10.1s7.31-2.68 8.64-5.3z" fill="#d9727e"/><path d="m138.15 145.54a5.31 5.31 0 0 0 -4.8 9.48c2.62 1.32 8.78 1.78 10.1-.84s-2.68-7.31-5.3-8.64z" fill="#d9727e"/><path d="m157.88 138.74a5.31 5.31 0 1 0 -9.92 3.8c1 2.74 5.31 7.21 8 6.16s2.97-7.22 1.92-9.96z" fill="#d9727e"/><path d="m194.35 174a5.31 5.31 0 1 1 -4.8 9.47c-2.61-1.32-6.62-6-5.3-8.63s7.48-2.17 10.1-.84z" fill="#d9727e"/><path d="m188.16 154.07a5.31 5.31 0 1 1 2.8 10.25c-2.83.77-9 0-9.72-2.85s4.09-6.62 6.92-7.4z" fill="#d9727e"/><path d="m202 122.53h3.59a15.76 15.76 0 0 1 15.76 15.76v28a0 0 0 0 1 0 0h-35.11a0 0 0 0 1 0 0v-28a15.76 15.76 0 0 1 15.76-15.76z" fill="#72392f"/><path d="m213 124.17a15.74 15.74 0 0 0 -8.77 14.13v28h-17.53v-28a15.76 15.76 0 0 1 15.76-15.76h3.59a15.59 15.59 0 0 1 6.95 1.63z" fill="#5e302b"/><path d="m163.83 142.73h3.59a15.76 15.76 0 0 1 15.76 15.76v28a0 0 0 0 1 0 0h-35.12a0 0 0 0 1 0 0v-28a15.76 15.76 0 0 1 15.77-15.76z" fill="#72392f"/><path d="m174.86 144.36a15.77 15.77 0 0 0 -8.78 14.13v28h-17.55v-28a15.76 15.76 0 0 1 15.75-15.76h3.59a15.73 15.73 0 0 1 6.99 1.63z" fill="#5e302b"/><path d="m121.62 122.53h3.59a15.76 15.76 0 0 1 15.79 15.77v28a0 0 0 0 1 0 0h-35.15a0 0 0 0 1 0 0v-28a15.76 15.76 0 0 1 15.77-15.77z" fill="#72392f"/><path d="m132.65 124.17a15.73 15.73 0 0 0 -8.78 14.13v28h-17.55v-28a15.75 15.75 0 0 1 15.75-15.76h3.59a15.6 15.6 0 0 1 6.99 1.63z" fill="#5e302b"/><path d="m103.78 148.14a107.59 107.59 0 0 1 107.58 107.59v56.63a107.59 107.59 0 0 1 -107.58 107.58 8.86 8.86 0 0 1 -8.86-8.86v-254.08a8.86 8.86 0 0 1 8.86-8.86z" fill="#cea97a"/><path d="m123.85 148.14a107.59 107.59 0 0 1 107.58 107.59v56.63a107.59 107.59 0 0 1 -107.58 107.58 8.86 8.86 0 0 1 -8.86-8.86v-254.08a8.86 8.86 0 0 1 8.86-8.86z" fill="#c58f29" transform="matrix(-1 0 0 -1 346.42 568.08)"/><path d="m123.85 148.14a107.59 107.59 0 0 1 107.58 107.59v56.63a107.59 107.59 0 0 1 -107.58 107.58 8.86 8.86 0 0 1 -8.86-8.86v-254.08a8.86 8.86 0 0 1 8.86-8.86z" fill="#f0c788" transform="matrix(-1 0 0 -1 346.42 568.08)"/><path d="m162.85 402.06c-2.27 1.51-4.61 2.94-7 4.27a107.51 107.51 0 0 1 -55.18-94v-56.61a107.67 107.67 0 0 1 55.18-94c2.38 1.34 4.72 2.76 7 4.27a107.66 107.66 0 0 0 -48.19 89.7v56.64a107.44 107.44 0 0 0 48.19 89.73z" fill="#af8f6b"/><circle cx="182.28" cy="208.75" fill="#cea97a" r="14.92"/><circle cx="197.2" cy="299.19" fill="#cea97a" r="14.92"/><circle cx="148.26" cy="261.43" fill="#cea97a" r="9.48"/><circle cx="208.66" cy="166.28" fill="#cea97a" r="9.48"/><circle cx="212.12" cy="244.58" fill="#cea97a" r="9.48"/><path d="m241.22 322.53v87.23a32.5 32.5 0 0 1 -32.5 32.5h-91.09a32.5 32.5 0 0 1 -32.5-32.5v-87.23a10.36 10.36 0 0 1 10.35-10.35h135.39a10.35 10.35 0 0 1 10.35 10.35z" fill="#a9678b"/><path d="m241.22 409.76a32.5 32.5 0 0 1 -32.5 32.5h-91.09a32.5 32.5 0 0 1 -32.5-32.5v-87.23a10.36 10.36 0 0 1 10.35-10.35s36.37 80.01 145.74 97.58z" fill="#955d80"/><path d="m241.22 322.53v87.23a32.5 32.5 0 0 1 -32.5 32.5h-91.09a32.5 32.5 0 0 1 -32.5-32.5c99.24 5.35 145.74-97.58 145.74-97.58a10.35 10.35 0 0 1 10.35 10.35z" fill="#dc7da7"/><rect fill="#98112e" height="264.93" rx="8.47" width="18.06" x="337.04" y="16.06"/><path d="m350.59 279.76a8.86 8.86 0 0 1 -4.52 1.22 9 9 0 0 1 -9-9v-246.89a9 9 0 0 1 9-9 8.86 8.86 0 0 1 4.52 1.22 9 9 0 0 0 -4.52 7.81v246.88a9 9 0 0 0 4.52 7.76z" fill="#80122f"/><path d="m442.84 191.5-1.67 21.5-5.59 71.53-10.95 140.14c-.42 5.44-5.93 9.67-12.59 9.67h-81.23c-6.67 0-12.19-4.23-12.61-9.67l-1.65-21.14-4.77-61.17-11.78-150.86z" fill="#db3a46"/><path d="m364.2 434.34h-33.66c-6.67 0-12.18-4.24-12.61-9.67l-18.2-233.18h33.66l18.2 233.18c.41 5.43 5.95 9.67 12.61 9.67z" fill="#9b112e"/><rect fill="#fff" height="19.6" rx="9.19" width="166.03" x="287.78" y="171.9"/><path d="m330.11 188.63a9.84 9.84 0 0 0 6.93 2.86h-39.47a9.8 9.8 0 0 1 0-19.59h39.43a9.8 9.8 0 0 0 -6.93 16.73z" fill="#d0d1d2"/><path d="m330.8 434.34h81.7a0 0 0 0 1 0 0v.49a7.43 7.43 0 0 1 -7.43 7.43h-66.84a7.43 7.43 0 0 1 -7.43-7.43v-.49a0 0 0 0 1 0 0z" fill="#9b112e"/><path d="m441.17 212.97-5.59 71.53-119.03 119.03-4.77-61.17z" fill="#fff"/><path d="m347.53 372.55-30.98 30.98-4.77-61.17 30.98-30.98z" fill="#d0d1d2"/><path d="m431.62 442.26a256 256 0 0 1 -351.24 0z" fill="#66a0d2"/></g></svg>