<svg height="512" viewBox="0 0 512 512" width="512" xmlns="http://www.w3.org/2000/svg"><g id="BULINE"><circle cx="256" cy="256" fill="#76c27d" r="256"/></g><g id="Icons"><path d="m462.27 407.64a257.32 257.32 0 0 1 -18.69 22.58q-6.24 6.69-12.92 12.95a256 256 0 0 1 -319.33 24.05q-7-4.8-13.69-10.07-5.31-4.18-10.4-8.66-7.9-6.93-15.24-14.49a255.93 255.93 0 0 1 -22.27-26.35z" fill="#854538"/><path d="m312.34 138.89a20.23 20.23 0 0 0 -23.17-16.79 20 20 0 0 0 -8.1 3.21 13.67 13.67 0 0 0 -24 10.92.24.24 0 0 1 0 .08c-.53 0-1.06.09-1.6.17a20.24 20.24 0 0 0 6.38 40 20.22 20.22 0 0 0 39.86-.79c.32 0 .63-.05 1-.1a14.43 14.43 0 0 0 7.82-24.59 20.09 20.09 0 0 0 1.81-12.11z" fill="#f0c788"/><g fill="#deb680"><path d="m293.46 189.13a20.19 20.19 0 0 1 -31.53-12.68 20.24 20.24 0 0 1 -6.39-40c.54-.08 1.08-.13 1.6-.17v-.08a13.67 13.67 0 0 1 20.71-13.77 13.65 13.65 0 0 0 -3 11v.08c-.53 0-1 .08-1.59.17a20.24 20.24 0 0 0 6.39 40 20.24 20.24 0 0 0 13.81 15.45z"/><circle cx="293.67" cy="137.94" r="8.28"/><circle cx="289.29" cy="162.98" r="6.25"/></g><path d="m178.3 86.73a20.21 20.21 0 0 0 -31.3-13.58 13.66 13.66 0 0 0 -24 10.93s0 0 0 .08c-.53 0-1.06.08-1.6.17a20.23 20.23 0 1 0 6.39 40 20.22 20.22 0 0 0 39.86-.8c.31 0 .63 0 1-.1a14.42 14.42 0 0 0 7.8-24.58 20.2 20.2 0 0 0 1.85-12.12z" fill="#f0c788"/><path d="m159.41 137a20.19 20.19 0 0 1 -31.53-12.68 20.24 20.24 0 1 1 -6.38-40c.53-.09 1.07-.13 1.6-.18v-.08a13.67 13.67 0 0 1 20.65-13.76 13.66 13.66 0 0 0 -3 11v.08c-.52 0-1 .09-1.58.17a20.24 20.24 0 1 0 6.38 40 20.21 20.21 0 0 0 13.86 15.45z" fill="#deb680"/><circle cx="159.63" cy="85.78" fill="#deb680" r="8.28"/><circle cx="155.24" cy="110.83" fill="#deb680" r="6.25"/><path d="m171.51 161a20.2 20.2 0 0 0 -14.84-30.7 13.67 13.67 0 0 0 -25.3-7.38.16.16 0 0 1 0 .07c-.43-.31-.86-.62-1.32-.91a20.24 20.24 0 1 0 -21.25 34.45 20.22 20.22 0 0 0 30.72 25.4c.26.19.52.38.79.55a14.43 14.43 0 0 0 22-13.54 20.12 20.12 0 0 0 9.2-7.94z" fill="#f2d95f"/><path d="m124.42 186.7a20.19 20.19 0 0 1 -15.62-30.18 20.24 20.24 0 1 1 21.2-34.52c.46.29.9.6 1.33.92v-.07a13.67 13.67 0 0 1 24.73 3.15 13.67 13.67 0 0 0 -9.44 6.32l-.05.07c-.42-.31-.85-.62-1.31-.9a20.24 20.24 0 0 0 -21.26 34.41 20.21 20.21 0 0 0 .42 20.8z" fill="#f1ce34"/><circle cx="157.98" cy="148.05" fill="#f1ce34" r="8.28"/><circle cx="138.32" cy="164.17" fill="#f1ce34" r="6.25"/><path d="m279 161a20.2 20.2 0 0 0 -14.83-30.7 13.67 13.67 0 0 0 -25.31-7.38v.07c-.43-.31-.87-.62-1.33-.91a20.24 20.24 0 0 0 -21.24 34.45 20.22 20.22 0 0 0 30.71 25.38c.25.19.51.38.78.55a14.43 14.43 0 0 0 22-13.54 20.07 20.07 0 0 0 9.22-7.92z" fill="#f2d95f"/><path d="m231.88 186.7a20.19 20.19 0 0 1 -15.62-30.18 20.24 20.24 0 1 1 21.22-34.52c.46.29.89.6 1.32.92v-.07a13.67 13.67 0 0 1 24.72 3.15 13.67 13.67 0 0 0 -9.44 6.32v.07c-.43-.31-.86-.62-1.32-.9a20.24 20.24 0 1 0 -21.24 34.45 20.23 20.23 0 0 0 .36 20.76z" fill="#f1ce34"/><circle cx="265.45" cy="148.05" fill="#f1ce34" r="8.28"/><circle cx="245.78" cy="164.17" fill="#f1ce34" r="6.25"/><path d="m147.51 46.94a20.21 20.21 0 0 0 -26.44-21.53 13.67 13.67 0 0 0 -26 4v.08c-.53-.1-1-.2-1.59-.27a20.24 20.24 0 1 0 -4.65 40.21 20.22 20.22 0 0 0 38.59 10c.31.06.62.12.94.16a14.43 14.43 0 0 0 14.14-21.52 20.16 20.16 0 0 0 5.01-11.13z" fill="#f2d95f"/><path d="m115.75 90.21a20.19 20.19 0 0 1 -26.93-20.74 20.24 20.24 0 1 1 4.65-40.21c.54.06 1.07.17 1.59.27v-.08a13.67 13.67 0 0 1 23.66-7.67 13.68 13.68 0 0 0 -5.88 9.73v.08c-.51-.1-1-.21-1.57-.27a20.24 20.24 0 0 0 -4.66 40.21 20.25 20.25 0 0 0 9.14 18.68z" fill="#f1ce34"/><circle cx="129.79" cy="40.98" fill="#f1ce34" r="8.28"/><circle cx="118.8" cy="63.91" fill="#f1ce34" r="6.25"/><path d="m293.62 104.42a20.2 20.2 0 0 0 -13.79-31.18 13.67 13.67 0 0 0 -25-8.22.25.25 0 0 0 0 .07c-.42-.33-.84-.66-1.29-1a20.24 20.24 0 1 0 -22.4 33.72 20.23 20.23 0 0 0 29.85 26.43c.25.19.5.39.77.57a14.43 14.43 0 0 0 22.4-12.79 20.16 20.16 0 0 0 9.46-7.6z" fill="#f2d95f"/><path d="m245.69 128.57a20.19 20.19 0 0 1 -14.59-30.7 20.24 20.24 0 1 1 22.4-33.72c.45.3.88.63 1.29 1l.05-.07a13.68 13.68 0 0 1 24.56 3.9 13.67 13.67 0 0 0 -9.65 6v.06c-.42-.32-.84-.65-1.29-.95a20.24 20.24 0 0 0 -22.46 33.67 20.23 20.23 0 0 0 -.31 20.81z" fill="#f1ce34"/><circle cx="280.54" cy="91.07" fill="#f1ce34" r="8.28"/><circle cx="260.34" cy="106.52" fill="#f1ce34" r="6.25"/><path d="m110.28 138.89a20.21 20.21 0 0 0 -31.28-13.58 13.66 13.66 0 0 0 -24 10.92s0 .05 0 .08c-.53 0-1.06.09-1.59.17a20.24 20.24 0 1 0 6.38 40 20.22 20.22 0 0 0 39.86-.79c.31 0 .63-.05 1-.1a14.43 14.43 0 0 0 7.8-24.59 20.17 20.17 0 0 0 1.83-12.11z" fill="#f0c788"/><path d="m91.4 189.13a20.2 20.2 0 0 1 -31.54-12.68 20.24 20.24 0 1 1 -6.38-40c.53-.08 1.07-.13 1.6-.17v-.08a13.66 13.66 0 0 1 20.7-13.77 13.65 13.65 0 0 0 -3 11v.08c-.53 0-1.06.08-1.59.17a20.24 20.24 0 1 0 6.38 40 20.22 20.22 0 0 0 13.83 15.45z" fill="#deb680"/><circle cx="91.61" cy="137.94" fill="#deb680" r="8.28"/><circle cx="87.22" cy="162.98" fill="#deb680" r="6.25"/><path d="m253.93 30.5a20.21 20.21 0 0 0 -31.28-13.59 13.67 13.67 0 0 0 -24 10.93s0 .05 0 .08c-.53 0-1.06.08-1.6.17a20.24 20.24 0 0 0 6.39 40 20.22 20.22 0 0 0 39.86-.8c.31 0 .63 0 .95-.1a14.42 14.42 0 0 0 7.8-24.58 20.17 20.17 0 0 0 1.88-12.11z" fill="#f0c788"/><path d="m235 80.73a19.88 19.88 0 0 1 -8.5 3.48 20.2 20.2 0 0 1 -23-16.16 20.24 20.24 0 1 1 -6.38-40c.53-.09 1.07-.13 1.6-.18v-.08a13.68 13.68 0 0 1 20.71-13.77 13.66 13.66 0 0 0 -3 11v.08c-.52 0-1.05.09-1.58.17a20.24 20.24 0 1 0 6.38 40 20.21 20.21 0 0 0 13.77 15.46z" fill="#deb680"/><circle cx="235.26" cy="29.54" fill="#deb680" r="8.28"/><circle cx="230.87" cy="54.59" fill="#deb680" r="6.25"/><path d="m217.08 127.29a20.2 20.2 0 0 0 -33.71-5.12 13.67 13.67 0 0 0 -20.37 16.7.43.43 0 0 0 0 .07c-.5.18-1 .36-1.5.58a20.24 20.24 0 0 0 16.4 37 20.23 20.23 0 0 0 38.33-11c.29-.11.59-.21.89-.34a14.43 14.43 0 0 0 1.25-25.77 20.14 20.14 0 0 0 -1.29-12.12z" fill="#fff"/><path d="m211.69 180.69a20.19 20.19 0 0 1 -33.69-4.18 20.24 20.24 0 1 1 -16.41-37c.49-.22 1-.4 1.5-.58v-.07a13.68 13.68 0 0 1 16.49-18.62 13.64 13.64 0 0 0 -.13 11.36v.07c-.5.18-1 .36-1.49.58a20.24 20.24 0 0 0 16.4 37 20.22 20.22 0 0 0 17.33 11.44z" fill="#f7efbe"/><circle cx="198.79" cy="131.15" fill="#f7efbe" r="8.28"/><circle cx="200.96" cy="156.48" fill="#f7efbe" r="6.25"/><path d="m112.6 76.81a20.2 20.2 0 0 0 -33.71-5.11 13.67 13.67 0 0 0 -20.39 16.7.43.43 0 0 1 0 .07c-.5.18-1 .36-1.5.58a20.23 20.23 0 1 0 16.4 37 20.22 20.22 0 0 0 38.32-11c.3-.11.6-.21.9-.34a14.42 14.42 0 0 0 1.32-25.71 20.18 20.18 0 0 0 -1.34-12.19z" fill="#fff"/><path d="m107.21 130.21a19.92 19.92 0 0 1 -7.32 5.54 20.21 20.21 0 0 1 -26.41-9.75 20.24 20.24 0 0 1 -16.48-37c.49-.22 1-.4 1.5-.58v-.07a13.66 13.66 0 0 1 16.5-18.57 13.68 13.68 0 0 0 -.12 11.36v.07c-.5.18-1 .35-1.49.57a20.24 20.24 0 0 0 16.4 37 20.2 20.2 0 0 0 17.42 11.43z" fill="#f7efbe"/><circle cx="94.31" cy="80.68" fill="#f7efbe" r="8.28"/><circle cx="96.48" cy="106.01" fill="#f7efbe" r="6.25"/><path d="m233.35 73.24a20.2 20.2 0 0 0 -33.71-5.12 13.67 13.67 0 0 0 -20.39 16.7v.07c-.5.18-1 .36-1.5.58a20.24 20.24 0 0 0 16.4 37 20.23 20.23 0 0 0 38.33-11c.3-.11.59-.22.89-.35a14.42 14.42 0 0 0 1.25-25.76 20.14 20.14 0 0 0 -1.27-12.12z" fill="#fff"/><path d="m228 126.63a20.2 20.2 0 0 1 -33.74-4.18 20.24 20.24 0 0 1 -16.41-37c.49-.22 1-.4 1.5-.57v-.08a13.66 13.66 0 0 1 16.4-18.6 13.64 13.64 0 0 0 -.12 11.36v.07c-.5.18-1 .35-1.49.57a20.24 20.24 0 0 0 16.4 37 20.21 20.21 0 0 0 17.46 11.43z" fill="#f7efbe"/><circle cx="215.06" cy="77.1" fill="#f7efbe" r="8.28"/><circle cx="217.23" cy="102.43" fill="#f7efbe" r="6.25"/><path d="m192.66 22.06a20.2 20.2 0 0 0 -33.66-5.12 13.67 13.67 0 0 0 -20.39 16.7.43.43 0 0 1 0 .07c-.5.18-1 .36-1.5.58a20.24 20.24 0 1 0 16.4 37 20.23 20.23 0 0 0 38.33-11c.29-.11.59-.21.89-.34a14.42 14.42 0 0 0 1.27-25.76 20.14 20.14 0 0 0 -1.34-12.13z" fill="#fff"/><path d="m187.28 75.45a20.2 20.2 0 0 1 -33.74-4.18 20.24 20.24 0 1 1 -16.41-37c.49-.22 1-.4 1.5-.57v-.08a13.66 13.66 0 0 1 16.43-18.62 13.64 13.64 0 0 0 -.12 11.36v.07c-.5.18-1 .35-1.49.57a20.24 20.24 0 0 0 16.4 37 20.21 20.21 0 0 0 17.43 11.45z" fill="#f7efbe"/><circle cx="174.37" cy="25.92" fill="#f7efbe" r="8.28"/><circle cx="176.54" cy="51.25" fill="#f7efbe" r="6.25"/><path d="m247 436.26h-151.06a21.69 21.69 0 0 1 -21.51-18.91l-28.17-217.86h250.46l-28.17 217.86a21.69 21.69 0 0 1 -21.55 18.91z" fill="#db3a46"/><path d="m141.69 436.26h-45.75a21.7 21.7 0 0 1 -21.52-18.91l-28.16-217.86h45.74l28.18 217.86a21.67 21.67 0 0 0 21.51 18.91z" fill="#aa3542"/><path d="m127.29 436.26h22.87v-236.77h-52.79z" fill="#fff"/><path d="m214.38 436.26h-22.87v-236.77h52.79z" fill="#fff"/><rect fill="#f6e0b8" height="36.74" rx="17.23" width="291.21" x="24.35" y="173.98"/><path d="m86.91 205.34a18.35 18.35 0 0 0 13 5.38h-57.19a18.37 18.37 0 0 1 0-36.74h57.18a18.37 18.37 0 0 0 -13 31.36z" fill="#e1cdab"/><path d="m293 385.62a20.23 20.23 0 0 0 -28.31-4.14 19.94 19.94 0 0 0 -5.69 6.59 13.67 13.67 0 0 0 -16.2 20.79s0 0 .05.07c-.45.28-.9.57-1.34.89a20.24 20.24 0 0 0 24.17 32.47 20.22 20.22 0 0 0 34.95-19.16c.27-.18.54-.34.8-.53a14.43 14.43 0 0 0 -4.43-25.44 20.18 20.18 0 0 0 -4-11.54z" fill="#f2d95f"/><path d="m299.56 438.89a20.19 20.19 0 0 1 -33.82 3.37 20.24 20.24 0 0 1 -24.17-32.47c.44-.33.9-.62 1.34-.9l-.05-.06a13.68 13.68 0 0 1 12-21.8 13.71 13.71 0 0 0 2.39 11.11l.05.06c-.44.28-.89.57-1.33.89a20.24 20.24 0 0 0 24.17 32.47 20.19 20.19 0 0 0 19.42 7.33z" fill="#f1ce34"/><circle cx="276.04" cy="393.43" fill="#f1ce34" r="8.28"/><circle cx="283.75" cy="417.66" fill="#f1ce34" r="6.25"/><path d="m242.48 399.11a20.2 20.2 0 0 0 -33.71-5.11 13.67 13.67 0 0 0 -20.39 16.7v.07c-.5.18-1 .36-1.5.58a20.24 20.24 0 0 0 16.4 37 20.23 20.23 0 0 0 38.33-11c.3-.11.6-.21.89-.34a14.43 14.43 0 0 0 1.25-25.77 20.06 20.06 0 0 0 -1.27-12.13z" fill="#fff"/><path d="m237.1 452.51a20.2 20.2 0 0 1 -33.74-4.19 20.24 20.24 0 1 1 -16.41-37c.5-.22 1-.4 1.5-.58v-.07a13.67 13.67 0 0 1 16.49-18.62 13.64 13.64 0 0 0 -.12 11.36v.07c-.5.18-1 .36-1.49.58a20.24 20.24 0 0 0 16.4 37 20.22 20.22 0 0 0 17.37 11.45z" fill="#f7efbe"/><circle cx="224.19" cy="402.97" fill="#f7efbe" r="8.28"/><circle cx="226.37" cy="428.3" fill="#f7efbe" r="6.25"/><rect fill="#9b112e" height="232.91" rx="7.45" width="15.88" x="365.48" y="53.63"/><path d="m377.39 285.47a7.77 7.77 0 0 1 -4 1.08 7.94 7.94 0 0 1 -7.94-7.94v-217a7.93 7.93 0 0 1 11.91-6.87 7.91 7.91 0 0 0 -4 6.87v217a7.89 7.89 0 0 0 4.03 6.86z" fill="#83122f"/><path d="m431.41 421.37h-71.41c-5.85 0-10.7-3.72-11.07-8.5l-16-205h125.57l-16 205c-.38 4.78-5.23 8.5-11.09 8.5z" fill="#4f619d"/><path d="m389.35 421.37h-29.59c-5.86 0-10.71-3.72-11.09-8.5l-16-205h29.6l16 205c.38 4.78 5.23 8.5 11.08 8.5z" fill="#495a88"/><rect fill="#fff" height="17.23" rx="8.08" width="145.96" x="322.16" y="190.64"/><path d="m359.38 205.35a8.66 8.66 0 0 0 6.1 2.52h-34.7a8.62 8.62 0 1 1 0-17.23h34.7a8.62 8.62 0 0 0 -6.1 14.71z" fill="#d4d5d6"/><path d="m360 421.37h71.83a0 0 0 0 1 0 0v.43a6.53 6.53 0 0 1 -6.53 6.53h-58.78a6.53 6.53 0 0 1 -6.52-6.53v-.43a0 0 0 0 1 0 0z" fill="#313d74"/><circle cx="396.17" cy="294.71" fill="#db3a46" r="35.15"/><path d="m431.82 294.71a35.16 35.16 0 0 1 -23.92 33.29c5.56-19.31-11.24-33.32-11.24-33.32-10.58-10.58-12.12-22.92-10.41-33.59a35.18 35.18 0 0 1 45.57 33.59z" fill="#d4e85e"/></g></svg>