<svg height="512" viewBox="0 0 512 512" width="512" xmlns="http://www.w3.org/2000/svg"><g id="BULINE"><circle cx="256" cy="256" fill="#62ac8d" r="256"/></g><g id="Icons"><path d="m124.44 86.07c-5.38 0-9.75 6.3-10 14.21-6-4.77-13.42-5.53-16.9-1.57s-1.77 11.2 3.75 16.57c-.77-.06-1.56-.1-2.37-.09-8.22.17-14.79 4.79-14.68 10.32s6.87 9.87 15.09 9.71 14.79-4.79 14.67-10.32a7.32 7.32 0 0 0 -1.37-4c3 .23 5.58-.57 7.28-2.5a7.16 7.16 0 0 0 1.57-3.18 7 7 0 0 0 3 .66c5.53 0 10-6.66 10-14.88s-4.48-14.93-10.04-14.93z" fill="#76c27d"/><path d="m108.55 150.17c8.11 12.48 29.85 23.79 42.33 15.68s11-32.57 2.87-45a27 27 0 1 0 -45.2 29.37z" fill="#db3a46"/><path d="m149.63 166.3c-12.63 7.21-33.63-3.89-41.63-16.14a26.94 26.94 0 0 1 32.9-39.57 27.67 27.67 0 0 0 -4.33 2.29 26.94 26.94 0 0 0 -7.93 37.28c4.36 6.62 12.45 12.9 20.99 16.14z" fill="#a3323f"/><ellipse cx="141.39" cy="129.4" fill="#fff" rx="3.84" ry="5.82" transform="matrix(.744 -.668 .668 .744 -50.27 127.59)"/><ellipse cx="121.83" cy="144.76" fill="#fff" rx="3.84" ry="5.82" transform="matrix(.447 -.895 .895 .447 -62.09 189.14)"/><ellipse cx="123.19" cy="121.32" fill="#fff" rx="3.84" ry="5.82" transform="matrix(.94 -.341 .341 .94 -34.01 49.33)"/><ellipse cx="146.21" cy="149.79" fill="#fff" rx="3.84" ry="5.82" transform="matrix(.999 -.046 .046 .999 -6.67 6.81)"/><circle cx="178.05" cy="145.92" fill="#313d74" r="18.59"/><path d="m171.74 163.41a18.59 18.59 0 1 0 6.32-36.08 18.9 18.9 0 0 0 -6.32 1.09 18.6 18.6 0 0 1 0 35z" fill="#2c375f"/><circle cx="171.74" cy="141.94" fill="#40518f" r="6.31"/><path d="m157 379.35a39 39 0 0 0 5.5 16.17h-32.78c-.37-.6-.72-1.2-1.06-1.83a40.12 40.12 0 0 1 -1.84-3.92c-.12-.3-.24-.61-.35-.91-.27-.69-.51-1.4-.73-2.12-.1-.31-.19-.62-.28-.93-.08-.31-.17-.63-.24-.95a1.17 1.17 0 0 1 -.06-.2c-.06-.25-.13-.51-.18-.76s-.15-.65-.21-1-.09-.43-.13-.64-.09-.47-.12-.7-.11-.67-.15-1-.11-.79-.15-1.19l-10.22-80.82-.82-6.47-4.83-38.2-4.85-38.34h32.75l4.85 38.34 4.83 38.2 2.47 19.57 3.24 25.56z" fill="#aadee6"/><path d="m162.46 395.52h-32.74c-.37-.6-.72-1.2-1.06-1.83a40.12 40.12 0 0 1 -1.84-3.92c-.12-.3-.24-.61-.35-.91-.27-.69-.51-1.4-.73-2.12-.1-.31-.19-.62-.28-.93-.08-.31-.17-.63-.24-.95a1.17 1.17 0 0 1 -.06-.2c-.06-.25-.13-.51-.18-.76s-.15-.65-.21-1-.09-.43-.13-.64-.09-.47-.12-.7-.11-.67-.15-1-.11-.79-.15-1.19l-10.22-80.82-.82-6.47-4.83-38.2-4.85-38.34h32.75l4.85 38.34 4.83 38.2 2.47 19.57 3.24 25.56 5.36 42.14a39 39 0 0 0 5.46 16.17z" fill="#93bfc2"/><path d="m229.43 163.1-6.63 52.44-20.72 163.81a39.15 39.15 0 0 1 -19.29 29.65 21.56 21.56 0 0 1 -9.79 28.06h7.7a29.57 29.57 0 0 1 29.55 29.55h-94.25a29.55 29.55 0 0 1 29.55-29.55h7.69a21.56 21.56 0 0 1 -9.74-28.06 39.12 39.12 0 0 1 -19.29-29.65l-20.72-163.81-6.63-52.44a5.69 5.69 0 0 1 5.64-6.41h121.29a5.69 5.69 0 0 1 5.64 6.41z" fill="#aadee6"/><path d="m223.79 156.69h-121.29a5.69 5.69 0 0 0 -5.64 6.41l6.63 52.44 4.85 38.34h109.66l4.85-38.34 6.63-52.44a5.69 5.69 0 0 0 -5.69-6.41z" fill="#96663e"/><path d="m173 437.06h5.3a29.55 29.55 0 0 0 -29.55 29.55h-32.75a29.55 29.55 0 0 1 29.55-29.55h7.7a21.56 21.56 0 0 1 -9.75-28.06 39.12 39.12 0 0 1 -19.29-29.65l-27.35-216.25a5.69 5.69 0 0 1 5.64-6.41h32.75a5.69 5.69 0 0 0 -5.64 6.41l27.39 216.25a39.12 39.12 0 0 0 19.25 29.65 21.54 21.54 0 0 0 3.27 22.91 21.69 21.69 0 0 1 -6.52 5.15z" fill="#93bfc2"/><path d="m136.24 215.54-6.59-52.44a5.86 5.86 0 0 1 6.1-6.41h-32.75a5.87 5.87 0 0 0 -6.1 6.41l6.63 52.44 4.85 38.34h32.75z" fill="#7f5736"/><path d="m379.94 20.93-72.65 172.31a12.51 12.51 0 0 1 -16.38 6.66 3.31 3.31 0 0 1 -.33-.15 12.5 12.5 0 0 1 -6.33-16.22l72.66-172.31a12.51 12.51 0 0 1 23.1.14 12.74 12.74 0 0 1 .93 4.7 12.47 12.47 0 0 1 -1 4.87z" fill="#d7932a"/><path d="m379.94 20.93-8.16 19.37-32.78 13.32 10.44-24.76 31.46-12.8a12.47 12.47 0 0 1 -.96 4.87z" fill="#ecc17a"/><path d="m360.27 67.59-10.45 24.77-32.74 13.32 10.44-24.75z" fill="#ecc17a"/><path d="m338.7 118.73-10.44 24.77-32.75 13.32 10.44-24.76z" fill="#ecc17a"/><path d="m317.88 168.13-10.44 24.76-16.86 6.86a12.5 12.5 0 0 1 -6.33-16.22l.87-2.07z" fill="#ecc17a"/><path d="m427.77 95-140.12 123.79a12.5 12.5 0 0 1 -17.65-1.09 3.36 3.36 0 0 1 -.24-.29 12.5 12.5 0 0 1 1.33-17.36l140.12-123.83a12.5 12.5 0 0 1 20.79 10.13 12.68 12.68 0 0 1 -1.22 4.65 12.67 12.67 0 0 1 -3.01 4z" fill="#d7932a"/><path d="m427.77 95-15.77 13.87-35.29-2.18 20.16-17.79 33.9 2.1a12.67 12.67 0 0 1 -3 4z" fill="#ecc17a"/><path d="m389.83 128.48-20.14 17.8-35.29-2.17 20.13-17.8z" fill="#ecc17a"/><path d="m348.24 165.24-20.14 17.8-35.29-2.18 20.13-17.79z" fill="#ecc17a"/><path d="m308.07 200.74-20.13 17.8-18.17-1.13a12.5 12.5 0 0 1 1.33-17.36l1.67-1.48z" fill="#ecc17a"/><path d="m360.91 163.1-6.63 52.44-20.72 163.81a39.11 39.11 0 0 1 -19.28 29.65 21.55 21.55 0 0 1 -9.78 28.06h7.7a29.57 29.57 0 0 1 29.56 29.55h-94.26a29.55 29.55 0 0 1 29.56-29.55h7.69a21.56 21.56 0 0 1 -9.75-28.06 39.15 39.15 0 0 1 -19.29-29.65l-20.71-163.81-6.63-52.44a5.7 5.7 0 0 1 5.65-6.41h121.25a5.69 5.69 0 0 1 5.64 6.41z" fill="#aadee6"/><path d="m304.5 437.06h5.31a29.55 29.55 0 0 0 -29.56 29.55h-32.75a29.55 29.55 0 0 1 29.56-29.55h7.69a21.56 21.56 0 0 1 -9.75-28.06 39.15 39.15 0 0 1 -19.29-29.65l-27.37-216.25a5.7 5.7 0 0 1 5.65-6.41h32.75a5.7 5.7 0 0 0 -5.65 6.41l27.35 216.25a39.12 39.12 0 0 0 19.29 29.65 21.52 21.52 0 0 0 3.27 22.91 21.73 21.73 0 0 1 -6.5 5.15z" fill="#93bfc2"/><path d="m288.44 379.35a39 39 0 0 0 5.5 16.17h-32.74c-.36-.6-.71-1.2-1.05-1.83a40.18 40.18 0 0 1 -1.85-3.92c-.12-.3-.24-.61-.35-.91-.26-.69-.5-1.4-.72-2.12-.11-.31-.2-.62-.28-.93-.09-.31-.18-.63-.25-.95a1.17 1.17 0 0 1 -.05-.2c-.07-.25-.13-.51-.19-.76s-.14-.65-.21-1l-.12-.64c0-.24-.09-.47-.12-.7s-.12-.67-.16-1-.11-.79-.15-1.19l-10.21-80.8-.83-6.47-4.83-38.2-4.83-38.36h32.75l4.85 38.34 4.83 38.2 2.48 19.57 3.23 25.56z" fill="#aadee6"/><path d="m293.94 395.52h-32.74c-.36-.6-.71-1.2-1.05-1.83a40.18 40.18 0 0 1 -1.85-3.92c-.12-.3-.24-.61-.35-.91-.26-.69-.5-1.4-.72-2.12-.11-.31-.2-.62-.28-.93-.09-.31-.18-.63-.25-.95a1.17 1.17 0 0 1 -.05-.2c-.07-.25-.13-.51-.19-.76s-.14-.65-.21-1l-.12-.64c0-.24-.09-.47-.12-.7s-.12-.67-.16-1-.11-.79-.15-1.19l-10.21-80.8-.83-6.47-4.83-38.2-4.83-38.36h32.75l4.85 38.34 4.83 38.2 2.48 19.57 3.23 25.56 5.33 42.14a39 39 0 0 0 5.47 16.17z" fill="#93bfc2"/><path d="m338.89 337.21-5.33 42.14a38.86 38.86 0 0 1 -5.49 16.17h-66.87a38.74 38.74 0 0 1 -5.51-16.17l-5.33-42.14z" fill="#72392f"/><path d="m344.6 292.08-5.71 45.13h-88.52l-5.72-45.13z" fill="#dc7da7"/><path d="m349.43 253.88-4.83 38.2h-99.95l-4.83-38.2z" fill="#d4e85e"/><path d="m354.28 215.54-4.85 38.34h-109.61l-4.85-38.34z" fill="#f5db8f"/><path d="m344.6 292.08-2.47 19.57h-95l-2.48-19.57z" fill="#c6668f"/><path d="m288.44 379.35a39 39 0 0 0 5.5 16.17h-32.74c-.36-.6-.71-1.2-1.05-1.83a40.18 40.18 0 0 1 -1.85-3.92c-.12-.3-.24-.61-.35-.91-.26-.69-.5-1.4-.72-2.12-.11-.31-.2-.62-.28-.93-.09-.31-.18-.63-.25-.95a1.17 1.17 0 0 1 -.05-.2c-.07-.25-.13-.51-.19-.76s-.14-.65-.21-1l-.12-.64c0-.24-.09-.47-.12-.7s-.12-.67-.16-1-.11-.79-.15-1.19l-5.32-42.14h32.74z" fill="#63332d"/><path d="m283.11 337.21h-32.74l-3.23-25.56-1.66-13.1-.83-6.47h32.75l2.48 19.57z" fill="#c4759c"/><path d="m277.4 292.08h-32.75l-4.83-38.2h32.75z" fill="#c3d15a"/><path d="m272.57 253.88h-32.75l-4.85-38.34h32.75z" fill="#d7c082"/><path d="m277.4 292.08 2.48 19.57h-32.74l-1.66-13.1-.83-6.47z" fill="#ae6085"/><path d="m252.87 248.52c4.19 5.67 14.8 10.42 20.48 6.22s4.28-15.72.09-21.4a12.78 12.78 0 1 0 -20.57 15.18z" fill="#db3a46"/><path d="m312 300.46c-3.55 6.1-3.7 17.72 2.4 21.27s16.14-2.31 19.69-8.41a12.78 12.78 0 0 0 -22.09-12.86z" fill="#db3a46"/><path d="m262.4 341.27c5.83 4 17.41 5 21.39-.88s-1.15-16.26-7-20.23a12.78 12.78 0 0 0 -14.4 21.11z" fill="#db3a46"/><circle cx="317.19" cy="264.26" fill="#313d74" r="14.91"/><path d="m322.25 278.29a14.91 14.91 0 1 1 0-28.06 14.91 14.91 0 0 0 0 28.06z" fill="#2c375f"/><circle cx="322.25" cy="261.06" fill="#40518f" r="5.06"/><path d="m360.91 163.1-6.63 52.44h-119.28l-6.63-52.44a5.7 5.7 0 0 1 5.65-6.41h121.25a5.69 5.69 0 0 1 5.64 6.41z" fill="#fff"/><path d="m267.68 215.54h-32.68l-6.62-52.44a5.86 5.86 0 0 1 6.1-6.41h32.78a6.76 6.76 0 0 0 -6.71 6.41z" fill="#edd0d4"/><path d="m337.86 128.05h-2.63a14.55 14.55 0 0 0 6.58-12.18v-3.59a14.58 14.58 0 0 0 -14.58-14.58h-6.59a16.36 16.36 0 0 0 -10.13-29.22h-32.39a16.36 16.36 0 0 0 -10.12 29.22h-6.59a14.57 14.57 0 0 0 -14.57 14.58v3.59a14.52 14.52 0 0 0 6.58 12.18h-2.63a16.38 16.38 0 1 0 0 32.75h87.09a16.38 16.38 0 0 0 0-32.75z" fill="#fff"/><circle cx="317.19" cy="122.42" fill="#313d74" r="17.05"/><path d="m323 138.46a17.05 17.05 0 1 1 0-32.08 17 17 0 0 0 0 32.08z" fill="#2c375f"/><circle cx="322.98" cy="118.77" fill="#40518f" r="5.78"/><path d="m312.68 202.73c-4.26 5.63-5.81 17.14-.18 21.41s16.29-.35 20.56-6a12.78 12.78 0 0 0 -20.38-15.43z" fill="#db3a46"/><circle cx="262.27" cy="190.75" fill="#313d74" r="14.91"/><path d="m267.33 204.79a15.25 15.25 0 0 1 -5.07.87 14.91 14.91 0 1 1 5.07-28.94 14.92 14.92 0 0 0 0 28.07z" fill="#2c375f"/><circle cx="267.33" cy="187.56" fill="#40518f" r="5.06"/><circle cx="297.44" cy="231.48" fill="#d7c082" r="6.39"/><circle cx="335.86" cy="241.1" fill="#d7c082" r="6.39"/><circle cx="289.51" cy="267.46" fill="#c3d15a" r="6.39"/><circle cx="334.24" cy="282.61" fill="#c3d15a" r="6.39"/><circle cx="297.44" cy="326.44" fill="#c6668f" r="6.39"/><circle cx="302.46" cy="368.45" fill="#63332d" r="6.39"/><circle cx="325.71" cy="350.9" fill="#63332d" r="6.39"/><path d="m309.41 48.85h-9.41a19.63 19.63 0 0 0 -19.63 19.63h-2.06a16.36 16.36 0 0 0 -10.19 29.22h-6.59a14.57 14.57 0 0 0 -14.53 14.58v3.59a14.54 14.54 0 0 0 6.57 12.18h-2.62a16.38 16.38 0 1 0 0 32.75h30.52a16.38 16.38 0 0 1 0-32.75h2.63a14.53 14.53 0 0 1 -6.59-12.18v-3.59a14.59 14.59 0 0 1 14.55-14.58h6.59a16.36 16.36 0 0 1 10.14-29.22h-5a7.75 7.75 0 0 0 7.74-7.74v-9.74a2.15 2.15 0 0 0 -2.12-2.15z" fill="#edd0d4"/><path d="m263 115.55c-4.26 5.62-5.81 17.14-.18 21.4s16.29-.34 20.55-6a12.78 12.78 0 0 0 -20.37-15.4z" fill="#db3a46"/><path d="m207.41 337.21-5.33 42.14a38.73 38.73 0 0 1 -5.5 16.17h-66.87a38.87 38.87 0 0 1 -5.5-16.17l-5.33-42.14z" fill="#db3a46"/><path d="m213.12 292.08-5.71 45.13h-88.53l-5.71-45.13z" fill="#fff"/><path d="m217.95 253.88-4.83 38.2h-99.95l-4.83-38.2z" fill="#fff"/><path d="m213.12 292.08-2.48 19.57h-95l-2.47-19.57z" fill="#c6668f"/><path d="m157 379.35a39 39 0 0 0 5.5 16.17h-32.78c-.37-.6-.72-1.2-1.06-1.83a40.12 40.12 0 0 1 -1.84-3.92c-.12-.3-.24-.61-.35-.91-.27-.69-.51-1.4-.73-2.12-.1-.31-.19-.62-.28-.93-.08-.31-.17-.63-.24-.95a1.17 1.17 0 0 1 -.06-.2c-.06-.25-.13-.51-.18-.76s-.15-.65-.21-1-.09-.43-.13-.64-.09-.47-.12-.7-.11-.67-.15-1-.11-.79-.15-1.19l-5.32-42.14h32.74z" fill="#9b3142"/><path d="m151.63 337.21h-32.74l-3.24-25.56-1.66-13.1-.82-6.47h32.75l2.47 19.57z" fill="#edd0d4"/><path d="m145.92 292.08h-32.75l-4.83-38.2h32.75z" fill="#edd0d4"/><path d="m145.92 292.08 2.47 19.57h-32.74l-1.66-13.1-.82-6.47z" fill="#ae6085"/><path d="m120.9 260.15c4.19 5.68 14.8 10.42 20.48 6.23s4.28-15.73.09-21.41a12.78 12.78 0 0 0 -20.57 15.18z" fill="#db3a46"/><circle cx="185.71" cy="264.26" fill="#313d74" r="14.91"/><path d="m190.77 278.29a14.91 14.91 0 1 1 0-28.06 14.91 14.91 0 0 0 0 28.06z" fill="#2c375f"/><circle cx="190.77" cy="261.06" fill="#40518f" r="5.06"/><path d="m181.2 202.73c-4.27 5.63-5.81 17.14-.19 21.41s16.3-.35 20.56-6a12.78 12.78 0 0 0 -20.37-15.43z" fill="#db3a46"/><circle cx="130.78" cy="190.75" fill="#313d74" r="14.91"/><path d="m135.84 204.79a15.15 15.15 0 0 1 -5.06.87 14.91 14.91 0 1 1 5.06-28.94 14.92 14.92 0 0 0 0 28.07z" fill="#2c375f"/><circle cx="135.84" cy="187.56" fill="#40518f" r="5.06"/><circle cx="165.96" cy="231.48" fill="#7f5736" r="6.39"/><circle cx="204.37" cy="241.1" fill="#7f5736" r="6.39"/><circle cx="158.02" cy="267.46" fill="#edd0d4" r="6.39"/><circle cx="202.75" cy="282.61" fill="#edd0d4" r="6.39"/><circle cx="165.96" cy="326.44" fill="#c6668f" r="6.39"/><circle cx="132.97" cy="322.81" fill="#c6668f" r="6.39"/><circle cx="138.17" cy="353.83" fill="#c6668f" r="6.39"/><circle cx="170.98" cy="368.45" fill="#9b3142" r="6.39"/><circle cx="194.23" cy="350.9" fill="#9b3142" r="6.39"/><path d="m401.56 466.61a254.77 254.77 0 0 1 -144.23 45.39h-1.33a254.91 254.91 0 0 1 -145.56-45.39z" fill="#72392f"/><path d="m387 386.54c-4.31-5.1-13.8-4.18-21.48 1.93-.32-9.54-5.53-17.14-12.07-17.26s-12 7.31-12.7 16.86a25.79 25.79 0 0 0 -1.82-2.33c-6.75-7.65-16.4-10.17-21.55-5.62s-3.84 14.43 2.91 22.08 16.41 10.17 21.56 5.63a9.12 9.12 0 0 0 2.72-4.55c2.15 3 5 4.83 8.21 4.89a8.78 8.78 0 0 0 4.27-1.06 8.7 8.7 0 0 0 1.75 3.32c4.44 5.24 14.35 4.14 22.14-2.46s10.47-16.19 6.06-21.43z" fill="#75c07d"/><path d="m326.57 391c-3.77 3.33-4.09 9.52-1.32 15.61a26.53 26.53 0 0 1 -5-4.4c-6.76-7.66-8.06-17.55-2.91-22.1s14.8-2 21.56 5.64a28.06 28.06 0 0 1 1.82 2.32c.65-9.54 6.15-17 12.69-16.86 5.06.1 9.31 4.66 11.14 11.14a8.3 8.3 0 0 0 -1.92-.26c-6.55-.12-12 7.32-12.7 16.86a26.2 26.2 0 0 0 -1.82-2.33c-6.74-7.62-16.39-10.17-21.54-5.62z" fill="#64a268"/><path d="m313.5 422.93c-5.32 17.7 1.41 47.38 19.11 52.7s39.67-15.74 45-33.45a33.46 33.46 0 0 0 -64.1-19.25z" fill="#d93a46"/><path d="m331.18 474.8c-16.94-6.14-23.31-35-18.09-52.35a33.45 33.45 0 0 1 63.9-.59 33.5 33.5 0 0 0 -47.33 20.14c-2.82 9.38-2.26 22.1 1.52 32.8z" fill="#a1323f"/><g fill="#fff"><ellipse cx="370.63" cy="433.66" rx="5.54" ry="3.66" transform="matrix(.136 -.991 .991 .136 -109.34 741.96)"/><ellipse cx="320.95" cy="425.8" rx="5.54" ry="3.66" transform="matrix(.361 -.933 .933 .361 -192 571.4)"/><ellipse cx="336.86" cy="427.15" rx="5.54" ry="3.66" transform="matrix(.361 -.933 .933 .361 -183.09 587.1)"/><ellipse cx="356.72" cy="431.29" rx="5.54" ry="3.66" transform="matrix(.094 -.996 .996 .094 -106.32 745.71)"/><ellipse cx="360.39" cy="450.05" rx="5.54" ry="3.66" transform="matrix(.136 -.991 .991 .136 -134.43 745.99)"/><ellipse cx="322.34" cy="444.91" rx="5.54" ry="3.66" transform="matrix(.36 -.93 .93 .36 -208.93 584.91)"/><ellipse cx="341.23" cy="446.42" rx="5.54" ry="3.66" transform="matrix(.228 -.974 .974 .228 -171.24 676.87)"/><ellipse cx="342.31" cy="410.55" rx="5.54" ry="3.66" transform="matrix(.497 -.868 .868 .497 -184.03 503.83)"/><ellipse cx="356.26" cy="413.5" rx="3.66" ry="5.54"/><ellipse cx="328.11" cy="463.66" rx="3.66" ry="5.54" transform="matrix(.921 -.389 .389 .921 -154.58 164.24)"/><ellipse cx="348.42" cy="466.22" rx="5.54" ry="3.66" transform="matrix(.475 -.88 .88 .475 -227.32 551.56)"/></g><circle cx="386.6" cy="449.45" fill="#313d74" r="20.64"/><path d="m387.84 470.07a21 21 0 0 1 -7.07-.81 20.65 20.65 0 1 1 18-36.47 20.65 20.65 0 0 0 -11 37.28z" fill="#2c375f"/><circle cx="394.57" cy="447.18" fill="#40518f" r="7"/></g></svg>