<svg height="512" viewBox="0 0 512 512" width="512" xmlns="http://www.w3.org/2000/svg"><g id="BULINE"><circle cx="256" cy="256" fill="#313d74" r="256"/></g><g id="Icons"><path d="m487.41 365.59a254.52 254.52 0 0 1 -21.71 37.27q-3.19 4.56-6.59 9c.12.19.25.37.38.55q-.21-.27-.39-.54a255.54 255.54 0 0 1 -203.1 100.13c-112.81 0-208.58-73-242.68-174.29h485.36a251.81 251.81 0 0 1 -11.27 27.88z" fill="#c6668f"/><path d="m259 178.4-2.8 39.88h-221.9l-2.8-39.88c0-.62.07-1.24.12-1.87a104 104 0 0 1 103.74-96.94h19.72a104 104 0 0 1 103.75 96.94c.06.63.1 1.25.17 1.87z" fill="#9f313d"/><path d="m75 176.53c0 .63-.09 1.25-.12 1.87l2.8 39.88h-43.26l-2.8-39.88c0-.62.07-1.24.13-1.87a104 104 0 0 1 103.73-96.94h19.72a103.63 103.63 0 0 1 11.76.66 104 104 0 0 0 -91.96 96.28z" fill="#8b2f3e"/><rect fill="#f1ce34" height="169.74" rx="9.78" transform="matrix(1 -.006 .006 1 -.85 .83)" width="31.95" x="129.26" y="63.37"/><path d="m153.69 232.91a9.61 9.61 0 0 1 -1.79.17l-12.41.07a9.77 9.77 0 0 1 -9.82-9.71l-.86-150.2a9.77 9.77 0 0 1 9.71-9.83l12.41-.07a9.61 9.61 0 0 1 1.79.16 9.76 9.76 0 0 0 -7.93 9.65l.86 150.2a9.78 9.78 0 0 0 8.04 9.56z" fill="#ccaf2f"/><rect fill="#f1ce34" height="169.74" rx="9.78" transform="matrix(1 -.006 .006 1 -.94 1.01)" width="31.95" x="160.72" y="79.62"/><path d="m185.15 249.15a8.93 8.93 0 0 1 -1.8.18l-12.4.07a9.77 9.77 0 0 1 -9.83-9.71l-.86-150.21a9.77 9.77 0 0 1 9.74-9.82l12.4-.07a9.72 9.72 0 0 1 1.8.15 9.78 9.78 0 0 0 -7.94 9.65l.86 150.2a9.77 9.77 0 0 0 8.03 9.56z" fill="#ccaf2f"/><rect fill="#f1ce34" height="169.74" rx="9.78" transform="matrix(1 -.006 .006 1 -.8 1.19)" width="31.95" x="192.17" y="56.44"/><path d="m216.6 226a9.61 9.61 0 0 1 -1.79.17l-12.41.08a9.77 9.77 0 0 1 -9.82-9.72l-.86-150.2a9.77 9.77 0 0 1 9.71-9.83l12.41-.07a9.61 9.61 0 0 1 1.79.16 9.76 9.76 0 0 0 -7.93 9.65l.86 150.2a9.76 9.76 0 0 0 8.04 9.56z" fill="#ccaf2f"/><rect fill="#f1ce34" height="169.74" rx="9.78" transform="matrix(1 -.006 .006 1 -.73 .47)" width="31.95" x="66.22" y="43.36"/><path d="m90.65 212.89a8.84 8.84 0 0 1 -1.79.18l-12.41.07a9.77 9.77 0 0 1 -9.82-9.72l-.86-150.2a9.77 9.77 0 0 1 9.71-9.82l12.41-.07a9.61 9.61 0 0 1 1.79.15 9.77 9.77 0 0 0 -7.93 9.65l.86 150.2a9.76 9.76 0 0 0 8.04 9.56z" fill="#ccaf2f"/><rect fill="#f1ce34" height="169.74" rx="9.78" transform="matrix(1 -.006 .006 1 -.94 .65)" width="31.95" x="97.68" y="79.62"/><path d="m122.11 249.15a8.93 8.93 0 0 1 -1.8.18l-12.4.07a9.77 9.77 0 0 1 -9.83-9.71l-.86-150.21a9.77 9.77 0 0 1 9.72-9.82l12.4-.07a9.72 9.72 0 0 1 1.8.15 9.77 9.77 0 0 0 -7.94 9.65l.86 150.2a9.77 9.77 0 0 0 8.05 9.56z" fill="#ccaf2f"/><rect fill="#f1ce34" height="169.74" rx="9.78" transform="matrix(.965 -.262 .262 .965 -42.29 21.67)" width="31.95" x="44.05" y="84.38"/><path d="m89.94 248.9a9.48 9.48 0 0 1 -1.69.63l-12 3.25a9.76 9.76 0 0 1 -12-6.86l-39.36-144.92a9.77 9.77 0 0 1 6.87-12l12-3.25a9 9 0 0 1 1.77-.31 9.76 9.76 0 0 0 -5.19 11.36l39.4 144.94a9.76 9.76 0 0 0 10.2 7.16z" fill="#ccaf2f"/><rect fill="#f1ce34" height="169.74" rx="9.78" transform="matrix(-.965 -.262 .262 -.965 415.62 393.97)" width="31.95" x="218.13" y="84.38"/><path d="m204.19 248.9a9.77 9.77 0 0 0 1.69.63l12 3.25a9.76 9.76 0 0 0 12-6.86l39.36-144.92a9.77 9.77 0 0 0 -6.86-12l-12-3.25a9 9 0 0 0 -1.77-.31 9.76 9.76 0 0 1 5.19 11.36l-39.4 144.94a9.76 9.76 0 0 1 -10.21 7.16z" fill="#ccaf2f"/><path d="m259.08 176.53-.08 1.87-2.8 39.88-2.34 33.44-3.26 46.46-2.99 41.82a35.87 35.87 0 0 1 -35.8 33.38h-133.17a35.89 35.89 0 0 1 -35.81-33.38l-2.93-41.82-3.26-46.46-2.34-33.44-2.8-39.88-.13-1.87h62.19a13.2 13.2 0 0 1 13.19 13.2v5.57a17.45 17.45 0 0 0 17.46 17.46h42a17.45 17.45 0 0 0 17.46-17.46v-5.57a13.19 13.19 0 0 1 13.19-13.2z" fill="#db3a46"/><path d="m74.73 176.53h.27c0 .63-.09 1.25-.12 1.87z" fill="#db3a46"/><path d="m122 373.37h-43.24a35.9 35.9 0 0 1 -35.76-33.37l-3-41.82-3.26-46.46-2.35-33.44-2.8-39.88-.12-1.87h43.53c0 .63-.09 1.25-.12 1.87l2.8 39.88 2.32 33.44 3.25 46.46 2.94 41.82a35.89 35.89 0 0 0 35.81 33.37z" fill="#a32f3b"/><path d="m253.81 251.72-3.26 46.46h-76.91a36.71 36.71 0 0 1 -56.83 0h-76.91l-3.26-46.46h80.17a36.71 36.71 0 0 1 56.83 0z" fill="#fff"/><path d="m83.26 298.19h-43.23l-3.26-46.47h43.23z" fill="#d4d4d4"/><path d="m272.42 140.74 64.31 91.56-24.73 17.39-64.32-91.56a16.32 16.32 0 1 1 -8.93-29.67 9 9 0 0 0 8.81-6.18 16.32 16.32 0 1 1 24.88 18.46z" fill="#fff"/><path d="m235.86 144.19a16.36 16.36 0 0 1 0-15.55 16.32 16.32 0 1 0 11.81 29.48l64.33 91.57 11.92-8.38-64.32-91.56a16.33 16.33 0 0 1 -23.74-5.56z" fill="#d4d4d4"/><path d="m417.7 256.27c-28.59-40.69-90.93-76.79-121.48-55.33s-17.75 92.35 10.84 133 76.52 56.29 107.07 34.83 32.15-71.77 3.57-112.5z" fill="#935d32"/><g fill="#81532e"><path d="m314.29 194.73a36.22 36.22 0 0 0 -18.07 6.21c-30.55 21.46-17.75 92.35 10.84 133s76.52 56.29 107.07 34.83a52.06 52.06 0 0 0 13.09-13.31c-29.38 7.62-66.41-8.86-90.12-42.62s-36.56-88.25-22.81-118.11z"/><circle cx="411.04" cy="318.28" r="8.16"/><circle cx="357.2" cy="301.95" r="11.64"/><circle cx="379.71" cy="253.41" r="11.64"/><circle cx="343.42" cy="227.61" r="8.16"/></g><path d="m487.41 365.59a254.52 254.52 0 0 1 -21.71 37.27q-3.19 4.56-6.59 9c.12.19.25.37.38.55q-.21-.27-.39-.54l-.06-.09a16.25 16.25 0 0 1 -2.79-9.13h-111.9v-30.27h111.9a16.32 16.32 0 0 1 31.16-6.79z" fill="#fff"/><path d="m465.7 402.86q-3.19 4.56-6.59 9a.27.27 0 0 1 -.07-.08 16.25 16.25 0 0 1 -2.79-9.13h-111.9v-14.6h111.9a16.32 16.32 0 0 0 9.45 14.81z" fill="#d4d4d4"/><path d="m278.2 319.9c49.73 0 115.11 30.27 115.11 67.61s-65.38 67.6-115.11 67.6-90-30.27-90-67.6 40.28-67.61 90-67.61z" fill="#935d32"/><path d="m388 369.15a36.2 36.2 0 0 1 5.31 18.36c0 37.33-65.38 67.6-115.11 67.6s-90-30.27-90-67.6a52 52 0 0 1 3.37-18.36c10.65 28.42 45.42 49.24 86.67 49.24s93.22-20.82 109.76-49.24z" fill="#81532e"/><circle cx="231.29" cy="360.99" fill="#81532e" r="8.16"/><circle cx="275.6" cy="395.67" fill="#81532e" r="11.64"/><circle cx="302.38" cy="349.35" fill="#81532e" r="11.64"/><circle cx="344.35" cy="364.21" fill="#81532e" r="8.16"/></g></svg>