<svg height="512" viewBox="0 0 512 512" width="512" xmlns="http://www.w3.org/2000/svg"><g id="BULINE"><circle cx="255.99" cy="256" fill="#c27135" r="256"/></g><g id="Icons"><path d="m473.87 390.47a256 256 0 0 1 -427.52 12.46q-1.86-2.62-3.64-5.31-2.35-3.54-4.59-7.15z" fill="#313d74"/><path d="m310.62 198.81a18.59 18.59 0 0 0 -9 2.32 22.33 22.33 0 0 0 -42.3 5.59 18.62 18.62 0 0 0 -24.93 5.68 22.34 22.34 0 0 0 -35 17.5 18.66 18.66 0 1 0 9.86 19.43 22.34 22.34 0 0 0 32.9-9.56 18.61 18.61 0 0 0 25.6-11.58 22.31 22.31 0 0 0 27.46-.23 18.66 18.66 0 1 0 15.43-29.15z" fill="#76c27d"/><path d="m162.66 267.86c8.67-2.45 14.57-6.9 15.73-12.84 1.67-8.55-6.92-17.94-20.91-24.55a42.56 42.56 0 0 0 2.2-7.52c3.32-17-4-32.7-16.25-35.11s-25 9.41-28.29 26.39a44.12 44.12 0 0 0 -.8 7.8c-15.45.85-26.94 6.31-28.61 14.87-1.16 5.94 2.63 12.27 9.73 17.81-8.67 2.45-14.57 6.89-15.73 12.83-2.4 12.3 16.39 26.32 42 31.33s48.28-.91 50.68-13.2c1.14-5.94-2.65-12.28-9.75-17.81z" fill="#76c27d"/><path d="m135.61 300.53a94.77 94.77 0 0 1 -14.06-1.7c-25.58-5-44.38-19-42-31.32 1.17-5.94 7.07-10.39 15.73-12.83-7.09-5.53-10.89-11.88-9.73-17.81 1.67-8.55 13.16-14 28.61-14.86a44 44 0 0 1 .8-7.81c3.32-17 16-28.79 28.29-26.39 5.24 1 9.57 4.47 12.55 9.41-6.22 4.62-11.21 12.67-13.11 22.4a42.34 42.34 0 0 0 -.8 7.81c-15.45.85-26.94 6.31-28.62 14.86-1.16 5.94 2.63 12.28 9.74 17.82-8.67 2.44-14.57 6.88-15.73 12.83-1.93 9.97 10.07 21.06 28.33 27.59z" fill="#68a76c"/><path d="m117.42 304.93c6.31-6.42 9.23-13.2 7.3-18.93-2.78-8.26-14.89-12.16-30.32-11a43 43 0 0 0 -1.82-7.62c-5.53-16.38-19.58-26.38-31.51-22.38s-17 20.54-11.49 36.94a42.67 42.67 0 0 0 3.17 7.17c-13 8.39-20.28 18.83-17.5 27.09 1.93 5.73 8.36 9.36 17.27 10.65-6.31 6.42-9.23 13.2-7.3 18.94 4 11.87 27.28 14.75 52 6.42s41.49-24.7 37.49-36.58c-1.95-5.78-8.38-9.41-17.29-10.7z" fill="#76c27d"/><path d="m110.1 346.71a93.83 93.83 0 0 1 -13 5.5c-24.7 8.32-48 5.45-52-6.42-1.94-5.74 1-12.52 7.31-18.94-8.94-1.29-15.41-4.92-17.31-10.65-2.79-8.26 4.49-18.69 17.49-27.08a42.78 42.78 0 0 1 -3.17-7.18c-5.53-16.4-.37-32.93 11.5-36.93 5.07-1.71 10.53-.86 15.56 2-3.11 7.1-3.46 16.56-.29 26a43.34 43.34 0 0 0 3.17 7.19c-13 8.38-20.28 18.82-17.49 27.08 1.93 5.73 8.36 9.36 17.28 10.65-6.33 6.42-9.25 13.2-7.31 18.94 3.25 9.53 19.16 13.23 38.26 9.84z" fill="#68a76c"/><path d="m478.68 330.31c9-.26 15.81-3.13 18.38-8.6 3.72-7.89-2.32-19.09-14.27-28.92a43 43 0 0 0 4-6.76c7.37-15.65 4.16-32.67-7.18-38s-26.5 3-33.87 18.68a43.13 43.13 0 0 0 -2.69 7.37c-15.19-2.95-27.67-.47-31.38 7.42-2.58 5.47-.45 12.54 5.08 19.65-9 .25-15.8 3.12-18.38 8.6-5.34 11.33 9.46 29.53 33.05 40.63s47 10.92 52.37-.41c2.55-5.49.42-12.56-5.11-19.66z" fill="#76c27d"/><path d="m444.46 355.38a94.33 94.33 0 0 1 -13.22-5.08c-23.58-11.1-38.38-29.3-33.05-40.63 2.58-5.48 9.4-8.34 18.39-8.6-5.53-7.1-7.66-14.18-5.09-19.65 3.72-7.88 16.19-10.37 31.38-7.42a43.23 43.23 0 0 1 2.69-7.38c7.37-15.65 22.54-24 33.87-18.67 4.84 2.28 8.19 6.68 9.88 12.19-7.17 3-14 9.55-18.19 18.52a43.23 43.23 0 0 0 -2.69 7.38c-15.19-3-27.67-.47-31.38 7.42-2.57 5.47-.45 12.54 5.09 19.65-9 .24-15.81 3.11-18.39 8.59-4.33 9.2 4.6 22.9 20.71 33.68z" fill="#68a76c"/><path d="m439.79 314.1v39.37h-366v-14.32c0-20.1 6.83-38.29 17.87-51.46s26.28-21.31 43.13-21.31a165 165 0 0 0 81.81-22.07c31.07-17.67 65-26.84 99.46-26.84h42.73c44.73 0 81 43.26 81 96.63z" fill="#854538"/><path d="m439.79 331.1v22.37h-366c.57-19 7.27-36.2 17.82-48.78 11-13.16 26.28-21.31 43.13-21.31a165 165 0 0 0 81.86-22.08c31.07-17.67 65-26.84 99.46-26.84h42.73c44.73 0 81 43.27 81 96.64z" fill="#72392f"/><path d="m218.35 279.51a203 203 0 0 1 -76.86 15c-31.65 0-57.31 22.07-57.31 49.3v9.7h343.82v-26.71c0-36.16-34.07-65.47-76.09-65.47h-40.11a246.91 246.91 0 0 0 -93.45 18.18z" fill="#cc7f73"/><rect fill="#915b58" height="50.5" rx="7.35" transform="matrix(.707 .707 -.707 .707 338.12 -171.35)" width="14.69" x="368.56" y="297.22"/><rect fill="#dd9f9a" height="50.5" rx="7.35" transform="matrix(.707 .707 -.707 .707 309.37 -101.94)" width="14.69" x="270.4" y="297.22"/><rect fill="#b06d66" height="78.34" rx="7.35" transform="matrix(.707 .707 -.707 .707 318.59 -140.21)" width="14.69" x="321.2" y="275.3"/><circle cx="128.98" cy="322.47" fill="#915b58" r="11.31"/><circle cx="179.5" cy="331.17" fill="#dd9f9a" r="11.31"/><circle cx="229.32" cy="299.97" fill="#b06d66" r="11.31"/><circle cx="78.54" cy="333.78" fill="#db3a46" r="22.15"/><path d="m86.12 354.41a22.16 22.16 0 1 1 0-41.26 22.17 22.17 0 0 0 0 41.26z" fill="#a12f3c"/><circle cx="440.05" cy="333.78" fill="#db3a46" r="22.15"/><path d="m447.63 354.41a22.16 22.16 0 1 1 0-41.26 22.17 22.17 0 0 0 0 41.26z" fill="#a12f3c"/><circle cx="417.99" cy="341.32" fill="#313d74" r="14.91"/><path d="m423 355.35a14.91 14.91 0 1 1 -5.06-29 15.16 15.16 0 0 1 5.06.88 14.92 14.92 0 0 0 0 28.07z" fill="#2c375f"/><circle cx="423.04" cy="338.12" fill="#40518d" r="5.06"/><circle cx="100.7" cy="341.32" fill="#313d74" r="14.91"/><path d="m105.75 355.35a14.92 14.92 0 1 1 -5.06-29 15.16 15.16 0 0 1 5.06.88 14.92 14.92 0 0 0 0 28.07z" fill="#2c375f"/><circle cx="105.75" cy="338.12" fill="#40518d" r="5.06"/><path d="m452.62 390.41h-391.62a29.71 29.71 0 0 1 -28.28-20.59l-3.08-9.54a5.21 5.21 0 0 1 5-6.81h444.36a5.21 5.21 0 0 1 5 6.81l-3.07 9.54a29.71 29.71 0 0 1 -28.31 20.59z" fill="#fff"/><path d="m117.67 390.41h278.24a0 0 0 0 1 0 0v2.2a24.62 24.62 0 0 1 -24.62 24.62h-229a24.62 24.62 0 0 1 -24.62-24.62v-2.2a0 0 0 0 1 0 0z" fill="#ccc"/><rect fill="#dd9f9a" height="13.63" rx="6.81" transform="matrix(.808 .589 -.589 .808 206.65 -170.64)" width="30.8" x="349.91" y="225.15"/><rect fill="#e7c5c4" height="13.63" rx="6.81" transform="matrix(.653 -.757 .757 .653 -86.27 275.54)" width="30.8" x="242.34" y="225.15"/><rect fill="#915b58" height="13.63" rx="6.81" transform="matrix(.835 .55 -.55 .835 173.96 -68.07)" width="30.8" x="185.25" y="249.65"/><rect fill="#edbbb9" height="13.63" rx="6.81" transform="matrix(.914 .405 -.405 .914 122.42 -33.43)" width="30.8" x="124.89" y="266.05"/><rect fill="#b06d66" height="13.63" rx="6.81" transform="matrix(.479 .878 -.878 .479 362.95 -166.2)" width="30.8" x="306.16" y="215.99"/><g fill="#f0c788"><path d="m173.35 54.79c-5.1 8.13-21.68 39.21-.84 71.7a57 57 0 0 1 5.08 9.73c4.73 12 12.36 38.11-1.2 58.21a.64.64 0 0 0 .85.92l.32-.19a56.34 56.34 0 0 0 16.44-81.48c-9.78-13.39-20.82-34.17-19.43-58.51a.64.64 0 0 0 -1.22-.38z"/><path d="m341.37 54.79c-5.09 8.13-21.67 39.21-.84 71.7a57 57 0 0 1 5.08 9.73c4.74 12 12.36 38.11-1.19 58.21a.64.64 0 0 0 .84.92l.33-.19a56.35 56.35 0 0 0 16.41-81.48c-9.77-13.39-20.82-34.17-19.42-58.51a.65.65 0 0 0 -1.21-.38z"/><path d="m251.71 17.79c-5.09 8.13-21.68 39.21-.84 71.7a57 57 0 0 1 5.13 9.73c4.73 12 12.36 38.11-1.2 58.21a.64.64 0 0 0 .85.92l.33-.19a56.35 56.35 0 0 0 16.39-81.48c-9.78-13.39-20.82-34.17-19.42-58.51a.65.65 0 0 0 -1.24-.38z"/></g></g></svg>