<svg height="512" viewBox="0 0 512 512" width="512" xmlns="http://www.w3.org/2000/svg"><g id="BULINE"><circle cx="256" cy="256" fill="#dc7da7" r="256"/></g><g id="Icons"><circle cx="338.4" cy="52.35" fill="#313d74" r="24.15"/><path d="m346.6 75.08a24.16 24.16 0 1 1 0-45.46 24.16 24.16 0 0 0 0 45.46z" fill="#2c375f"/><circle cx="346.6" cy="47.18" fill="#40518d" r="8.19"/><circle cx="415.34" cy="320.45" fill="#313d74" r="24.15"/><path d="m423.53 343.19a24.16 24.16 0 1 1 0-45.47 24.17 24.17 0 0 0 0 45.47z" fill="#2c375f"/><circle cx="423.53" cy="315.28" fill="#40518d" r="8.19"/><circle cx="182.23" cy="52.35" fill="#313d74" r="24.15"/><path d="m190.42 75.08a24.16 24.16 0 1 1 0-45.46 24.16 24.16 0 0 0 0 45.46z" fill="#2c375f"/><circle cx="190.42" cy="47.18" fill="#40518d" r="8.19"/><path d="m471 350.08-2.93 9.06a28.2 28.2 0 0 1 -26.84 19.53h-371.74a28.17 28.17 0 0 1 -26.82-19.53l-2.93-9.06a4.94 4.94 0 0 1 4.7-6.46h421.88a5 5 0 0 1 4.68 6.46z" fill="#ccc"/><path d="m471 350.08-2.93 9.06a28.2 28.2 0 0 1 -26.84 19.53h-287.9a28.21 28.21 0 0 1 -26.84-19.53l-2.91-9.06a4.94 4.94 0 0 1 4.7-6.46h338a5 5 0 0 1 4.72 6.46z" fill="#fff"/><path d="m123.33 378.68h264.11a0 0 0 0 1 0 0v2.08a23.37 23.37 0 0 1 -23.37 23.37h-217.37a23.37 23.37 0 0 1 -23.37-23.37v-2.08a0 0 0 0 1 0 0z" fill="#ccc"/><rect fill="#ad8e6c" height="47.93" rx="23.96" width="335.49" x="84.48" y="295.69"/><path d="m420 319.65a24 24 0 0 1 -24 24h-287.55a24 24 0 0 1 -21.3-34.95 23.58 23.58 0 0 0 4.35 6 23.92 23.92 0 0 0 17 7h287.5a23.93 23.93 0 0 0 21.3-13 23.69 23.69 0 0 1 2.7 10.95z" fill="#9c8064"/><rect fill="#d3ad7c" height="47.93" rx="23.96" width="335.49" x="99.11" y="248.08"/><path d="m434.61 272a24 24 0 0 1 -24 24h-287.53a24 24 0 0 1 -21.3-34.95 23.44 23.44 0 0 0 4.36 6 23.85 23.85 0 0 0 16.94 7h287.56a23.93 23.93 0 0 0 21.3-13 23.72 23.72 0 0 1 2.67 10.95z" fill="#bb9b73"/><rect fill="#f0c788" height="47.93" rx="23.96" width="335.49" x="79.84" y="201.12"/><path d="m415.34 225.08a24 24 0 0 1 -24 24h-287.53a24 24 0 0 1 -21.3-35 23.62 23.62 0 0 0 4.36 6 23.88 23.88 0 0 0 16.94 7h287.56a24 24 0 0 0 21.3-13 23.72 23.72 0 0 1 2.67 11z" fill="#d3ad7c"/><rect fill="#f0c788" height="47.93" rx="23.96" width="335.49" x="99.11" y="105.1"/><path d="m434.61 129.06a24 24 0 0 1 -24 24h-287.53a24 24 0 0 1 -21.3-34.95 23.44 23.44 0 0 0 4.36 6 23.85 23.85 0 0 0 16.94 7h287.56a23.93 23.93 0 0 0 21.3-13 23.72 23.72 0 0 1 2.67 10.95z" fill="#d3ad7c"/><rect fill="#d3ad7c" height="47.93" rx="23.96" width="335.49" x="99.11" y="153.19"/><path d="m434.61 177.15a24 24 0 0 1 -24 24h-287.53a24 24 0 0 1 -21.3-35 23.44 23.44 0 0 0 4.36 6 23.84 23.84 0 0 0 16.94 7h287.56a23.92 23.92 0 0 0 21.3-13 23.72 23.72 0 0 1 2.67 11z" fill="#bb9b73"/><path d="m410 74.44h-304.29a24.61 24.61 0 0 0 -24.61 24.61v72.54a20.14 20.14 0 0 0 20.14 20.14c8.74 0 16.17-10.49 19-20.38a10.46 10.46 0 0 1 10-7.74h.45a10.36 10.36 0 0 1 10.31 10.39v15a20.13 20.13 0 0 0 20.13 20.14 20.14 20.14 0 0 0 20.15-20.14v-6.72a18.65 18.65 0 0 1 18.64-18.65 18.65 18.65 0 0 1 18.65 18.65v22.92a20.13 20.13 0 0 0 20.14 20.13 20.13 20.13 0 0 0 20.13-20.13v-10.2a31.4 31.4 0 0 1 31.39-31.39 31.39 31.39 0 0 1 31.39 31.39v42.29c0 10.91 8.49 20.21 19.4 20.6a20.13 20.13 0 0 0 20.87-20.12v-57.93a16.23 16.23 0 0 1 16.22-16.23 16.23 16.23 0 0 1 16.22 16.23v17.39c0 10.92 8.49 20.22 19.41 20.61a20.15 20.15 0 0 0 20.87-20.13v-98.66a24.61 24.61 0 0 0 -24.61-24.61z" fill="#db3a46"/><path d="m157.61 171.59a20.14 20.14 0 0 0 20.13 20.14 10 10 0 0 0 2.11-.22 20.13 20.13 0 0 1 -40.1-2.54v-14.97a10.34 10.34 0 0 0 -10.35-10.34h-.4a10.47 10.47 0 0 0 -10 7.73c-2.78 9.89-10.22 20.38-19 20.38a20.14 20.14 0 0 1 -20.13-20.14v-72.58a24.61 24.61 0 0 1 24.61-24.61h77.78a24.61 24.61 0 0 0 -24.62 24.61z" fill="#9b3041"/><circle cx="123.33" cy="320.45" fill="#313d74" r="24.15"/><path d="m131.53 343.19a24.16 24.16 0 1 1 0-45.47 24.17 24.17 0 0 0 0 45.47z" fill="#2c375f"/><circle cx="131.53" cy="315.28" fill="#40518d" r="8.19"/><circle cx="174.25" cy="320.45" fill="#313d74" r="24.15"/><path d="m182.44 343.19a24.16 24.16 0 1 1 0-45.47 24.17 24.17 0 0 0 0 45.47z" fill="#2c375f"/><circle cx="182.44" cy="315.28" fill="#40518d" r="8.19"/><ellipse cx="407.36" cy="120.59" fill="#d07e3e" rx="16.17" ry="28.68"/><path d="m314.14 37.87h-112.58a9 9 0 0 0 -9 9v27.57h84.64v7a8.64 8.64 0 0 0 8.64 8.56h1.86a8.64 8.64 0 0 0 8.64-8.64v-7h7.66v10.64a9.57 9.57 0 0 0 19.14 0v-38.12a9 9 0 0 0 -9-9.01z" fill="#f1ce34"/><g fill="#d0b32e"><path d="m239.84 37.87a9 9 0 0 0 -9 9v27.57h-38.28v-27.56a9 9 0 0 1 9-9z"/><circle cx="252.23" cy="52.67" r="7.05"/><circle cx="273.91" cy="63.2" r="7.05"/><circle cx="297.31" cy="56.16" r="10.54"/></g><circle cx="255.36" cy="52.35" fill="#313d74" r="24.15"/><path d="m263.56 75.08a24.16 24.16 0 1 1 0-45.46 24.16 24.16 0 0 0 0 45.46z" fill="#2c375f"/><circle cx="263.56" cy="47.18" fill="#40518d" r="8.19"/><path d="m464.81 404.13a256 256 0 0 1 -417.62 0z" fill="#72392f"/></g></svg>