<svg height="512" viewBox="0 0 512 512" width="512" xmlns="http://www.w3.org/2000/svg"><g id="BULINE"><circle cx="256" cy="256" fill="#7bb9ec" r="256"/></g><g id="Icons"><path d="m415.48 456.26a256 256 0 0 1 -319 0z" fill="#9b112e"/><path d="m431.11 212.23a21.83 21.83 0 0 0 -9.85 2.33 22 22 0 0 0 -36.62 2.08 22 22 0 0 0 -36-2.87 22 22 0 0 0 -35.22 1.63 22 22 0 0 0 -37.22 1.24 22 22 0 0 0 -36-2.87 22 22 0 0 0 -36 2.87 22 22 0 0 0 -37-1.55 22 22 0 0 0 -37 1.55 22 22 0 0 0 -35.28-3.72 22 22 0 1 0 10.77 36.08 21.72 21.72 0 0 0 5.51.7 22 22 0 0 0 19-10.91 22 22 0 0 0 37 1.55 22 22 0 0 0 37-1.55 22 22 0 0 0 36 2.87 22 22 0 0 0 36-2.87 22 22 0 0 0 37.22 1.24 22 22 0 0 0 35.22 1.63 22 22 0 0 0 36-2.87 22 22 0 0 0 28.84 8.58 22 22 0 1 0 17.63-35.17z" fill="#d6af7c"/><path d="m159 158.33-106.91-142.78a23 23 0 0 0 -32.61-4.35 23 23 0 0 0 -3.69 32.69l112.59 138.38c-8.35 19.46-3.65 46.7 13.85 69.12 23.16 29.66 60 39.64 82.19 22.28s21.47-55.48-1.69-85.14c-17.5-22.41-42.79-33.53-63.73-30.2z" fill="#cacaca"/><path d="m233.86 263a39.36 39.36 0 0 1 -9.44 10.67c-22.23 17.36-59 7.38-82.19-22.28-17.5-22.42-22.2-49.65-13.85-69.12l-112.59-138.37-.29-.37a23 23 0 0 1 17.94-37.2 23 23 0 0 0 4.13 20l.29.37 112.58 138.3c-8.34 19.47-3.64 46.71 13.86 69.13 19.17 24.58 47.7 35.65 69.56 28.87z" fill="#b3b3b3"/><circle cx="141.71" cy="223.22" fill="#313d74" r="20"/><path d="m151.31 240.77a20 20 0 0 1 -29.3-14.1 20 20 0 0 1 16.25-23.15 19.78 19.78 0 0 1 6.51-.06 20 20 0 0 0 6.54 37.31z" fill="#2b355a"/><circle cx="255.64" cy="227.73" fill="#313d74" r="20"/><path d="m265.24 245.28a20 20 0 1 1 -13.05-37.28 19.78 19.78 0 0 1 6.51-.07 20 20 0 0 0 6.54 37.32z" fill="#2b355a"/><circle cx="382.64" cy="222.23" fill="#313d74" r="20"/><path d="m392.24 239.77a20 20 0 1 1 -6.54-37.31 20 20 0 0 0 6.54 37.31z" fill="#2b355a"/><path d="m437.86 234.23a22 22 0 0 0 -19 10.91 22 22 0 0 0 -36-2.87 22 22 0 0 0 -35.22 1.63 22 22 0 0 0 -37.22 1.24 22 22 0 0 0 -36-2.87 22 22 0 0 0 -36 2.87 22 22 0 0 0 -37-1.55 22 22 0 0 0 -37 1.55 22 22 0 0 0 -36-2.87 22 22 0 0 0 -36 2.87 22 22 0 1 0 0 22.18 22 22 0 0 0 36 2.87 22 22 0 0 0 36-2.87 22 22 0 0 0 37 1.55 22 22 0 0 0 37-1.55 22 22 0 0 0 36 2.87 22 22 0 0 0 36-2.87 22 22 0 0 0 37.22 1.24 22 22 0 0 0 35.22 1.63 22 22 0 0 0 36-2.87 22 22 0 1 0 19-33.09z" fill="#f0c788"/><circle cx="87.42" cy="256.23" fill="#313d74" r="20"/><path d="m97 273.78a20 20 0 1 1 -13-37.25 19.85 19.85 0 0 1 6.52-.07 20 20 0 0 0 6.48 37.32z" fill="#2b355a"/><circle cx="335.42" cy="256.23" fill="#313d74" r="20"/><path d="m345 273.78a20 20 0 1 1 -13-37.25 19.85 19.85 0 0 1 6.52-.07 20 20 0 0 0 6.48 37.32z" fill="#2b355a"/><path d="m184 192.1c-5.67 10.69-4.63 32.46 7.51 38.91s30.76-4.86 36.44-15.54.45-24.57-11.69-31-26.58-3.05-32.26 7.63z" fill="#db3a46"/><path d="m199.32 232.9a16.8 16.8 0 0 1 -7.81-1.89c-12.14-6.45-13.19-28.22-7.51-38.91s20.13-14.11 32.27-7.66a28 28 0 0 1 6.36 4.62c-10.13-2.12-20.33 1.78-24.89 10.35s-4.74 24.28 1.58 33.49z" fill="#a32f3b"/><path d="m299 213.31c4.71 11.14 22.26 24.06 34.92 18.71s15.63-27 10.92-38.09-18.84-15.84-31.47-10.49-19.1 18.72-14.37 29.87z" fill="#db3a46"/><path d="m340.29 227.14a16.63 16.63 0 0 1 -6.39 4.86c-12.66 5.36-30.21-7.56-34.92-18.7s1.73-24.52 14.39-29.87a28 28 0 0 1 7.59-2c-8 6.52-11.43 16.9-7.65 25.84s15.82 19.01 26.98 19.87z" fill="#a32f3b"/><path d="m393.9 241.92c-5.3 10.88-3.48 32.6 8.87 38.62s30.58-5.94 35.88-16.82-.42-24.57-12.78-30.59-26.67-2.13-31.97 8.79z" fill="#db3a46"/><path d="m410.64 282.15a16.86 16.86 0 0 1 -7.87-1.61c-12.36-6-14.17-27.74-8.87-38.62s19.62-14.82 32-8.79a27.92 27.92 0 0 1 6.51 4.38c-10.19-1.76-20.25 2.5-24.5 11.23s-3.91 24.43 2.73 33.41z" fill="#a32f3b"/><path d="m136.3 268.63c7.25 9.68 27.39 18 38.4 9.77s8.7-29.9 1.46-39.59-22-10.87-33-2.63-14.11 22.76-6.86 32.45z" fill="#db3a46"/><path d="m179.73 272.14a16.84 16.84 0 0 1 -5 6.26c-11 8.24-31.15-.09-38.4-9.77s-4.2-24.22 6.81-32.46a27.72 27.72 0 0 1 6.88-3.79c-6.24 8.26-7.05 19.15-1.23 26.92s19.9 14.7 30.94 12.84z" fill="#a32f3b"/><path d="m39.31 263.73a182.57 182.57 0 0 0 2.35 29.21 179.87 179.87 0 0 0 29.79 73.74 181.17 181.17 0 0 0 73.92 61.74l-5.63 33.58a19.11 19.11 0 0 0 18.85 22.28h194.09a19.11 19.11 0 0 0 18.85-22.28l-5.63-33.53a181 181 0 0 0 53.1-36.86 182.2 182.2 0 0 0 20.83-24.93 180.41 180.41 0 0 0 32.17-102.95z" fill="#fff"/><path d="m469.61 292.94a179.19 179.19 0 0 1 -13.94 45.91h-400.07a179.59 179.59 0 0 1 -13.94-45.91z" fill="#dc7da7"/><path d="m439.83 366.68a181.7 181.7 0 0 1 -46 45.9h-276.41a181.5 181.5 0 0 1 -46-45.9z" fill="#dc7da7"/><path d="m253.19 484.23h-94.6a19.12 19.12 0 0 1 -18.85-22.29l5.63-33.51a180.71 180.71 0 0 1 -103.71-135.49 182.57 182.57 0 0 1 -2.35-29.21h94.6a182.57 182.57 0 0 0 2.35 29.21 180.07 180.07 0 0 0 29.74 73.74 181.44 181.44 0 0 0 74 61.75l-5.63 33.51a19.12 19.12 0 0 0 18.82 22.29z" fill="#d9d9d9"/><path d="m150.2 338.85h-94.6a179.59 179.59 0 0 1 -13.94-45.91h94.6a179.59 179.59 0 0 0 13.94 45.91z" fill="#b96b91"/><path d="m212 412.58h-94.6a181.5 181.5 0 0 1 -46-45.9h94.6a181.7 181.7 0 0 0 46 45.9z" fill="#b96b91"/><g fill="#f0c788"><path d="m319 122.51a3.21 3.21 0 0 1 3.21 3.21v13.75a26.53 26.53 0 0 1 -26.56 26.53 3.21 3.21 0 0 1 -3.21-3.21v-13.79a26.53 26.53 0 0 1 26.56-26.49z"/><path d="m438.28 129.76a3.21 3.21 0 0 1 3.21 3.21v13.75a26.53 26.53 0 0 1 -26.49 26.54 3.21 3.21 0 0 1 -3.21-3.21v-13.76a26.53 26.53 0 0 1 26.53-26.53z" transform="matrix(.924 .382 -.382 .924 90.1 -151.33)"/><path d="m223.68 101a3.21 3.21 0 0 1 3.21 3.21v13.79a26.53 26.53 0 0 1 -26.53 26.53 3.21 3.21 0 0 1 -3.21-3.21v-13.78a26.53 26.53 0 0 1 26.53-26.54z" transform="matrix(.463 -.887 .887 .463 5.12 253.96)"/><path d="m83.1 144.26a3.21 3.21 0 0 1 3.21 3.21v13.75a26.53 26.53 0 0 1 -26.53 26.53 3.21 3.21 0 0 1 -3.21-3.21v-13.75a26.53 26.53 0 0 1 26.53-26.53z" transform="matrix(.463 -.887 .887 .463 -108.79 152.57)"/></g></g></svg>